<svg xmlns="http://www.w3.org/2000/svg" xmlns:xlink="http://www.w3.org/1999/xlink" viewBox="0 0 473.69 368.86"><defs><style>.cls-1{fill:none;}.cls-2{isolation:isolate;}.cls-3{clip-path:url(#clip-path);}.cls-4{fill:#f1f1f4;}.cls-5{fill:#e0f3ff;}.cls-6{fill:url(#Áåçûìÿííûé_ãðàäèåíò_29);}.cls-7{fill:url(#Áåçûìÿííûé_ãðàäèåíò_28);}.cls-8{fill:#e5e2ff;}.cls-9{fill:url(#Áåçûìÿííûé_ãðàäèåíò_28-2);}.cls-10,.cls-11{opacity:0.62;}.cls-10,.cls-100,.cls-101,.cls-11,.cls-120,.cls-19,.cls-20,.cls-21,.cls-24,.cls-26,.cls-32,.cls-35,.cls-37,.cls-40,.cls-41,.cls-42,.cls-43,.cls-44,.cls-45,.cls-46,.cls-47,.cls-48,.cls-49,.cls-50,.cls-51,.cls-52,.cls-53,.cls-54,.cls-55,.cls-56,.cls-59,.cls-60,.cls-61,.cls-62,.cls-63,.cls-64,.cls-68,.cls-79,.cls-82,.cls-83,.cls-84,.cls-88,.cls-89,.cls-96,.cls-97,.cls-98,.cls-99{mix-blend-mode:multiply;}.cls-10{fill:url(#Áåçûìÿííûé_ãðàäèåíò_27);}.cls-11{fill:url(#Áåçûìÿííûé_ãðàäèåíò_94);}.cls-12,.cls-120,.cls-15,.cls-16,.cls-24,.cls-26,.cls-41,.cls-42,.cls-43,.cls-44,.cls-45,.cls-46,.cls-47,.cls-48,.cls-49,.cls-51,.cls-53,.cls-54,.cls-55,.cls-56,.cls-59,.cls-61,.cls-62,.cls-63,.cls-64,.cls-84{opacity:0.5;}.cls-12,.cls-15,.cls-16{mix-blend-mode:screen;}.cls-12{fill:url(#Áåçûìÿííûé_ãðàäèåíò_95);}.cls-13{fill:#fff;}.cls-14{fill:url(#Áåçûìÿííûé_ãðàäèåíò_74);}.cls-15{fill:url(#Áåçûìÿííûé_ãðàäèåíò_83);}.cls-16{fill:url(#Áåçûìÿííûé_ãðàäèåíò_83-2);}.cls-17{fill:url(#Áåçûìÿííûé_ãðàäèåíò_26);}.cls-18{fill:url(#Áåçûìÿííûé_ãðàäèåíò_26-2);}.cls-19,.cls-20,.cls-21,.cls-50{opacity:0.76;}.cls-19{fill:url(#Áåçûìÿííûé_ãðàäèåíò_70);}.cls-20{fill:url(#Áåçûìÿííûé_ãðàäèåíò_70-2);}.cls-21{fill:url(#Áåçûìÿííûé_ãðàäèåíò_70-3);}.cls-22{fill:#fe9083;}.cls-23{fill:url(#Áåçûìÿííûé_ãðàäèåíò_354);}.cls-24{fill:url(#Áåçûìÿííûé_ãðàäèåíò_70-4);}.cls-25{fill:url(#Áåçûìÿííûé_ãðàäèåíò_26-3);}.cls-26{fill:url(#Áåçûìÿííûé_ãðàäèåíò_70-5);}.cls-27{fill:url(#Áåçûìÿííûé_ãðàäèåíò_178);}.cls-28{fill:url(#Áåçûìÿííûé_ãðàäèåíò_55);}.cls-29{fill:#cb4d7a;}.cls-30{fill:#ee8183;}.cls-31{fill:url(#Áåçûìÿííûé_ãðàäèåíò_71);}.cls-32,.cls-37,.cls-68,.cls-79,.cls-82,.cls-83,.cls-94,.cls-96{opacity:0.6;}.cls-32{fill:url(#Áåçûìÿííûé_ãðàäèåíò_48);}.cls-33{fill:url(#Áåçûìÿííûé_ãðàäèåíò_71-2);}.cls-34{fill:#e28183;}.cls-35,.cls-40{opacity:0.91;}.cls-35{fill:url(#Áåçûìÿííûé_ãðàäèåíò_73);}.cls-36{fill:url(#Áåçûìÿííûé_ãðàäèåíò_71-3);}.cls-37{fill:url(#Áåçûìÿííûé_ãðàäèåíò_48-2);}.cls-38{fill:url(#Áåçûìÿííûé_ãðàäèåíò_64);}.cls-39{fill:url(#Áåçûìÿííûé_ãðàäèåíò_64-2);}.cls-40{fill:url(#Áåçûìÿííûé_ãðàäèåíò_73-2);}.cls-41{fill:url(#Áåçûìÿííûé_ãðàäèåíò_70-6);}.cls-42{fill:url(#Áåçûìÿííûé_ãðàäèåíò_70-7);}.cls-43{fill:url(#Áåçûìÿííûé_ãðàäèåíò_4);}.cls-44{fill:url(#Áåçûìÿííûé_ãðàäèåíò_4-2);}.cls-45{fill:url(#Áåçûìÿííûé_ãðàäèåíò_4-3);}.cls-46{fill:url(#Áåçûìÿííûé_ãðàäèåíò_4-4);}.cls-47{fill:url(#Áåçûìÿííûé_ãðàäèåíò_4-5);}.cls-48{fill:url(#Áåçûìÿííûé_ãðàäèåíò_4-6);}.cls-49{fill:url(#Áåçûìÿííûé_ãðàäèåíò_4-7);}.cls-50{fill:url(#Áåçûìÿííûé_ãðàäèåíò_70-8);}.cls-51{fill:url(#Áåçûìÿííûé_ãðàäèåíò_70-9);}.cls-100,.cls-52,.cls-60,.cls-97,.cls-98,.cls-99{opacity:0.3;}.cls-52{fill:url(#Áåçûìÿííûé_ãðàäèåíò_70-10);}.cls-53{fill:url(#Áåçûìÿííûé_ãðàäèåíò_4-8);}.cls-54{fill:url(#Áåçûìÿííûé_ãðàäèåíò_70-11);}.cls-55{fill:url(#Áåçûìÿííûé_ãðàäèåíò_4-9);}.cls-56{fill:url(#Áåçûìÿííûé_ãðàäèåíò_4-10);}.cls-57{fill:url(#Áåçûìÿííûé_ãðàäèåíò_25);}.cls-58{fill:#ebefff;}.cls-59{fill:url(#Áåçûìÿííûé_ãðàäèåíò_70-12);}.cls-60{fill:url(#Áåçûìÿííûé_ãðàäèåíò_70-13);}.cls-61{fill:url(#Áåçûìÿííûé_ãðàäèåíò_70-14);}.cls-62{fill:url(#Áåçûìÿííûé_ãðàäèåíò_70-15);}.cls-63{fill:url(#Áåçûìÿííûé_ãðàäèåíò_70-16);}.cls-64{fill:#7a4ac0;}.cls-65{fill:url(#Áåçûìÿííûé_ãðàäèåíò_71-4);}.cls-66{fill:url(#Áåçûìÿííûé_ãðàäèåíò_71-5);}.cls-67{fill:url(#Áåçûìÿííûé_ãðàäèåíò_387);}.cls-68{fill:url(#Áåçûìÿííûé_ãðàäèåíò_48-3);}.cls-69{fill:#38368e;}.cls-70{fill:url(#Áåçûìÿííûé_ãðàäèåíò_59);}.cls-71{fill:url(#Áåçûìÿííûé_ãðàäèåíò_184);}.cls-72{fill:#ffebed;}.cls-73{fill:#7f9ec9;}.cls-74{fill:#131163;}.cls-75{fill:#c6659c;}.cls-76{fill:#cb5f7d;}.cls-77{fill:#9f4a8b;}.cls-78{fill:#ffbcaf;}.cls-79{fill:url(#Áåçûìÿííûé_ãðàäèåíò_48-4);}.cls-80{fill:url(#Áåçûìÿííûé_ãðàäèåíò_292);}.cls-81{fill:#d2726c;}.cls-82{fill:url(#Áåçûìÿííûé_ãðàäèåíò_35);}.cls-83{fill:url(#Áåçûìÿííûé_ãðàäèåíò_52);}.cls-84{fill:url(#Áåçûìÿííûé_ãðàäèåíò_397);}.cls-85{fill:url(#Áåçûìÿííûé_ãðàäèåíò_141);}.cls-86{fill:url(#Áåçûìÿííûé_ãðàäèåíò_141-2);}.cls-87{fill:url(#Áåçûìÿííûé_ãðàäèåíò_141-3);}.cls-88,.cls-89{opacity:0.8;}.cls-88{fill:url(#Áåçûìÿííûé_ãðàäèåíò_285);}.cls-89{fill:url(#Áåçûìÿííûé_ãðàäèåíò_285-2);}.cls-90{fill:#34c7ff;}.cls-91{fill:url(#Áåçûìÿííûé_ãðàäèåíò_141-4);}.cls-92{fill:url(#Áåçûìÿííûé_ãðàäèåíò_141-5);}.cls-93{fill:url(#Áåçûìÿííûé_ãðàäèåíò_141-6);}.cls-94{fill:#36d1f7;}.cls-95{fill:#744ca2;}.cls-96{fill:url(#Áåçûìÿííûé_ãðàäèåíò_89);}.cls-97{fill:url(#Áåçûìÿííûé_ãðàäèåíò_85);}.cls-98{fill:url(#Áåçûìÿííûé_ãðàäèåíò_85-2);}.cls-99{fill:url(#Áåçûìÿííûé_ãðàäèåíò_85-3);}.cls-100{fill:url(#Áåçûìÿííûé_ãðàäèåíò_85-4);}.cls-101{fill:#d1d4fb;}.cls-102,.cls-121{mix-blend-mode:soft-light;}.cls-103{fill:#e0ffff;}.cls-104{fill:url(#Áåçûìÿííûé_ãðàäèåíò_65);}.cls-105{fill:url(#Áåçûìÿííûé_ãðàäèåíò_14);}.cls-106{opacity:0.81;fill:url(#Áåçûìÿííûé_ãðàäèåíò_115);}.cls-107{fill:#473da2;}.cls-108{fill:url(#Áåçûìÿííûé_ãðàäèåíò_302);}.cls-109{fill:url(#Áåçûìÿííûé_ãðàäèåíò_302-2);}.cls-110{fill:url(#Áåçûìÿííûé_ãðàäèåíò_322);}.cls-111{fill:url(#Áåçûìÿííûé_ãðàäèåíò_322-2);}.cls-112{fill:url(#Áåçûìÿííûé_ãðàäèåíò_25-2);}.cls-113{fill:url(#Áåçûìÿííûé_ãðàäèåíò_25-3);}.cls-114,.cls-116{opacity:0.73;}.cls-114{fill:url(#Áåçûìÿííûé_ãðàäèåíò_97);}.cls-115{fill:#953da2;}.cls-116{fill:url(#Áåçûìÿííûé_ãðàäèåíò_97-2);}.cls-117,.cls-118,.cls-119,.cls-120,.cls-121,.cls-125,.cls-126,.cls-127,.cls-128{fill-rule:evenodd;}.cls-117{fill:url(#Áåçûìÿííûé_ãðàäèåíò_206);}.cls-118{fill:url(#Áåçûìÿííûé_ãðàäèåíò_206-2);}.cls-119{fill:url(#Áåçûìÿííûé_ãðàäèåíò_107);}.cls-120{fill:#601734;}.cls-121{fill:#b3d9ff;}.cls-122{fill:#ff1d9c;}.cls-123{fill:#6877ff;}.cls-124{fill:#4f31e0;}.cls-125{fill:url(#Áåçûìÿííûé_ãðàäèåíò_107-2);}.cls-126{fill:url(#Áåçûìÿííûé_ãðàäèåíò_206-3);}.cls-127{fill:url(#Áåçûìÿííûé_ãðàäèåíò_107-3);}.cls-128{fill:url(#Áåçûìÿííûé_ãðàäèåíò_206-4);}</style><clipPath id="clip-path"><rect class="cls-1" x="-60.69" y="-31.14" width="600" height="400"/></clipPath><linearGradient id="Áåçûìÿííûé_ãðàäèåíò_29" x1="79.15" y1="244.06" x2="79.15" y2="172.87" gradientTransform="matrix(0.91, -0.42, 0.42, 0.91, -67.58, 25.13)" gradientUnits="userSpaceOnUse"><stop offset="0" stop-color="#dbccff"/><stop offset="1" stop-color="#d1bbff"/></linearGradient><linearGradient id="Áåçûìÿííûé_ãðàäèåíò_28" x1="79.15" y1="246.84" x2="79.15" y2="175.65" gradientTransform="matrix(0.91, -0.42, 0.42, 0.91, -67.58, 25.13)" gradientUnits="userSpaceOnUse"><stop offset="0" stop-color="#b5a6e7"/><stop offset="1" stop-color="#7760bf"/></linearGradient><linearGradient id="Áåçûìÿííûé_ãðàäèåíò_28-2" x1="79.15" y1="229.14" x2="79.15" y2="199.13" xlink:href="#Áåçûìÿííûé_ãðàäèåíò_28"/><linearGradient id="Áåçûìÿííûé_ãðàäèåíò_27" x1="74.89" y1="199.74" x2="83.41" y2="199.74" gradientTransform="matrix(0.91, -0.42, 0.42, 0.91, -67.58, 25.13)" gradientUnits="userSpaceOnUse"><stop offset="0" stop-color="#8b8be0"/><stop offset="1" stop-color="#a177b7"/></linearGradient><linearGradient id="Áåçûìÿííûé_ãðàäèåíò_94" x1="79.15" y1="201.71" x2="79.15" y2="196.56" gradientTransform="matrix(0.91, -0.42, 0.42, 0.91, -67.58, 25.13)" gradientUnits="userSpaceOnUse"><stop offset="0" stop-color="#fff"/><stop offset="1" stop-color="#a177b7"/></linearGradient><linearGradient id="Áåçûìÿííûé_ãðàäèåíò_95" x1="83.65" y1="232.21" x2="83.65" y2="199.12" gradientTransform="matrix(0.91, -0.42, 0.42, 0.91, -67.58, 25.13)" gradientUnits="userSpaceOnUse"><stop offset="0"/><stop offset="1" stop-color="#fff"/></linearGradient><linearGradient id="Áåçûìÿííûé_ãðàäèåíò_74" x1="219.61" y1="368.86" x2="219.61" y2="279.65" gradientUnits="userSpaceOnUse"><stop offset="0" stop-color="#6456c0"/><stop offset="1" stop-color="#5f2c95"/></linearGradient><radialGradient id="Áåçûìÿííûé_ãðàäèåíò_83" cx="171.81" cy="337.51" r="27.03" gradientTransform="matrix(0, 0.66, -1.71, 0, 754.49, 222.83)" gradientUnits="userSpaceOnUse"><stop offset="0" stop-color="#4b474b"/><stop offset="1"/></radialGradient><radialGradient id="Áåçûìÿííûé_ãðàäèåíò_83-2" cx="290.64" cy="321.67" r="27.03" gradientTransform="matrix(0.66, 0, 0, 1.71, 66.63, -214.82)" xlink:href="#Áåçûìÿííûé_ãðàäèåíò_83"/><linearGradient id="Áåçûìÿííûé_ãðàäèåíò_26" x1="190.74" y1="337.54" x2="214.14" y2="337.54" gradientUnits="userSpaceOnUse"><stop offset="0" stop-color="#9e8cef"/><stop offset="1" stop-color="#caafee"/></linearGradient><linearGradient id="Áåçûìÿííûé_ãðàäèåíò_26-2" x1="280.84" y1="337.55" x2="304.24" y2="337.55" gradientTransform="matrix(-1, 0, 0, 1, 526.26, 0)" xlink:href="#Áåçûìÿííûé_ãðàäèåíò_26"/><linearGradient id="Áåçûìÿííûé_ãðàäèåíò_70" x1="216.47" y1="368.86" x2="216.47" y2="279.65" gradientUnits="userSpaceOnUse"><stop offset="0" stop-color="#ccf"/><stop offset="1" stop-color="#755cbb"/></linearGradient><linearGradient id="Áåçûìÿííûé_ãðàäèåíò_70-2" x1="226.86" y1="324.26" x2="226.86" y2="299.93" xlink:href="#Áåçûìÿííûé_ãðàäèåíò_70"/><linearGradient id="Áåçûìÿííûé_ãðàäèåíò_70-3" x1="198.68" y1="315.31" x2="198.68" y2="291.47" xlink:href="#Áåçûìÿííûé_ãðàäèåíò_70"/><linearGradient id="Áåçûìÿííûé_ãðàäèåíò_354" x1="222.86" y1="145.31" x2="222.86" y2="109.7" gradientUnits="userSpaceOnUse"><stop offset="0" stop-color="#d5cdf8"/><stop offset="1" stop-color="#f3edfb"/></linearGradient><linearGradient id="Áåçûìÿííûé_ãðàäèåíò_70-4" x1="204.52" y1="127.47" x2="241.19" y2="127.47" xlink:href="#Áåçûìÿííûé_ãðàäèåíò_70"/><linearGradient id="Áåçûìÿííûé_ãðàäèåíò_26-3" x1="212.37" y1="287.59" x2="212.37" y2="108.15" xlink:href="#Áåçûìÿííûé_ãðàäèåíò_26"/><linearGradient id="Áåçûìÿííûé_ãðàäèåíò_70-5" x1="137.9" y1="175.78" x2="181.6" y2="175.78" xlink:href="#Áåçûìÿííûé_ãðàäèåíò_70"/><linearGradient id="Áåçûìÿííûé_ãðàäèåíò_178" x1="136.55" y1="226.03" x2="136.55" y2="142.12" gradientUnits="userSpaceOnUse"><stop offset="0" stop-color="#9e8cef"/><stop offset="1" stop-color="#dac7f3"/></linearGradient><linearGradient id="Áåçûìÿííûé_ãðàäèåíò_55" x1="280.84" y1="201.85" x2="337.15" y2="201.85" gradientUnits="userSpaceOnUse"><stop offset="0" stop-color="#a999f1"/><stop offset="1" stop-color="#dac7f3"/></linearGradient><linearGradient id="Áåçûìÿííûé_ãðàäèåíò_71" x1="118.24" y1="130.68" x2="118.24" y2="108.56" gradientUnits="userSpaceOnUse"><stop offset="0.02" stop-color="#ffc2a9"/><stop offset="1" stop-color="#ff9595"/></linearGradient><linearGradient id="Áåçûìÿííûé_ãðàäèåíò_48" x1="132.17" y1="130.16" x2="132.17" y2="93.53" gradientUnits="userSpaceOnUse"><stop offset="0" stop-color="#ffeadb"/><stop offset="0.99" stop-color="#c27cb6"/></linearGradient><linearGradient id="Áåçûìÿííûé_ãðàäèåíò_71-2" x1="130.98" y1="155.07" x2="130.98" y2="98.61" xlink:href="#Áåçûìÿííûé_ãðàäèåíò_71"/><linearGradient id="Áåçûìÿííûé_ãðàäèåíò_73" x1="120.88" y1="146.26" x2="138.64" y2="146.26" gradientUnits="userSpaceOnUse"><stop offset="0.02" stop-color="#d1a1d6"/><stop offset="0.99" stop-color="#bd89c4"/></linearGradient><linearGradient id="Áåçûìÿííûé_ãðàäèåíò_71-3" x1="338.31" y1="189.46" x2="338.31" y2="113.96" xlink:href="#Áåçûìÿííûé_ãðàäèåíò_71"/><linearGradient id="Áåçûìÿííûé_ãðàäèåíò_48-2" x1="347.23" y1="165.27" x2="347.23" y2="127.76" xlink:href="#Áåçûìÿííûé_ãðàäèåíò_48"/><linearGradient id="Áåçûìÿííûé_ãðàäèåíò_64" x1="354.63" y1="152.33" x2="354.63" y2="135.51" gradientUnits="userSpaceOnUse"><stop offset="0" stop-color="#ffb0b0"/><stop offset="0.98" stop-color="#ffc2a9"/></linearGradient><linearGradient id="Áåçûìÿííûé_ãðàäèåíò_64-2" x1="364.38" y1="154.92" x2="364.38" y2="145.69" xlink:href="#Áåçûìÿííûé_ãðàäèåíò_64"/><linearGradient id="Áåçûìÿííûé_ãðàäèåíò_73-2" x1="324.94" y1="173.29" x2="342.09" y2="173.29" xlink:href="#Áåçûìÿííûé_ãðàäèåíò_73"/><linearGradient id="Áåçûìÿííûé_ãðàäèåíò_70-6" x1="301.08" y1="232.48" x2="301.08" y2="147.97" xlink:href="#Áåçûìÿííûé_ãðàäèåíò_70"/><linearGradient id="Áåçûìÿííûé_ãðàäèåíò_70-7" x1="115" y1="215.46" x2="256.35" y2="215.46" xlink:href="#Áåçûìÿííûé_ãðàäèåíò_70"/><linearGradient id="Áåçûìÿííûé_ãðàäèåíò_4" x1="239.62" y1="191.8" x2="266.64" y2="191.8" gradientUnits="userSpaceOnUse"><stop offset="0" stop-color="#ccedff"/><stop offset="1" stop-color="#755cbb"/></linearGradient><linearGradient id="Áåçûìÿííûé_ãðàäèåíò_4-2" x1="215.11" y1="239.22" x2="254.82" y2="239.22" xlink:href="#Áåçûìÿííûé_ãðàäèåíò_4"/><linearGradient id="Áåçûìÿííûé_ãðàäèåíò_4-3" x1="216.95" y1="257.17" x2="259.37" y2="257.17" xlink:href="#Áåçûìÿííûé_ãðàäèåíò_4"/><linearGradient id="Áåçûìÿííûé_ãðàäèåíò_4-4" x1="180.44" y1="212.72" x2="180.44" y2="165.11" xlink:href="#Áåçûìÿííûé_ãðàäèåíò_4"/><linearGradient id="Áåçûìÿííûé_ãðàäèåíò_4-5" x1="184.28" y1="216.72" x2="184.28" y2="180.63" xlink:href="#Áåçûìÿííûé_ãðàäèåíò_4"/><linearGradient id="Áåçûìÿííûé_ãðàäèåíò_4-6" x1="127.24" y1="170.59" x2="127.24" y2="143.32" xlink:href="#Áåçûìÿííûé_ãðàäèåíò_4"/><linearGradient id="Áåçûìÿííûé_ãðàäèåíò_4-7" x1="149.3" y1="146.58" x2="160.29" y2="146.58" xlink:href="#Áåçûìÿííûé_ãðàäèåíò_4"/><linearGradient id="Áåçûìÿííûé_ãðàäèåíò_70-8" x1="268.76" y1="212.72" x2="268.76" y2="162.18" xlink:href="#Áåçûìÿííûé_ãðàäèåíò_70"/><linearGradient id="Áåçûìÿííûé_ãðàäèåíò_70-9" x1="325.58" y1="201.85" x2="325.58" y2="175.44" xlink:href="#Áåçûìÿííûé_ãðàäèåíò_70"/><linearGradient id="Áåçûìÿííûé_ãðàäèåíò_70-10" x1="295.63" y1="200.67" x2="295.63" y2="180.48" xlink:href="#Áåçûìÿííûé_ãðàäèåíò_70"/><linearGradient id="Áåçûìÿííûé_ãðàäèåíò_4-8" x1="121.53" y1="172.33" x2="121.53" y2="164.83" xlink:href="#Áåçûìÿííûé_ãðàäèåíò_4"/><linearGradient id="Áåçûìÿííûé_ãðàäèåíò_70-11" x1="141.56" y1="195.19" x2="141.56" y2="154.21" xlink:href="#Áåçûìÿííûé_ãðàäèåíò_70"/><linearGradient id="Áåçûìÿííûé_ãðàäèåíò_4-9" x1="246.98" y1="166.35" x2="246.98" y2="135.51" xlink:href="#Áåçûìÿííûé_ãðàäèåíò_4"/><linearGradient id="Áåçûìÿííûé_ãðàäèåíò_4-10" x1="206.59" y1="162.18" x2="206.59" y2="119.62" xlink:href="#Áåçûìÿííûé_ãðàäèåíò_4"/><linearGradient id="Áåçûìÿííûé_ãðàäèåíò_25" x1="192.22" y1="169.96" x2="263.3" y2="169.96" gradientUnits="userSpaceOnUse"><stop offset="0" stop-color="#8642a0"/><stop offset="1" stop-color="#6456c0"/></linearGradient><linearGradient id="Áåçûìÿííûé_ãðàäèåíò_70-12" x1="198.34" y1="128.94" x2="244.6" y2="128.94" xlink:href="#Áåçûìÿííûé_ãðàäèåíò_70"/><linearGradient id="Áåçûìÿííûé_ãðàäèåíò_70-13" x1="317.27" y1="198.84" x2="317.27" y2="172.07" xlink:href="#Áåçûìÿííûé_ãðàäèåíò_70"/><linearGradient id="Áåçûìÿííûé_ãðàäèåíò_70-14" x1="279.42" y1="229.04" x2="279.42" y2="147.97" xlink:href="#Áåçûìÿííûé_ãðàäèåíò_70"/><linearGradient id="Áåçûìÿííûé_ãðàäèåíò_70-15" x1="192.26" y1="267.12" x2="192.26" y2="243.88" xlink:href="#Áåçûìÿííûé_ãðàäèåíò_70"/><linearGradient id="Áåçûìÿííûé_ãðàäèåíò_70-16" x1="237.41" y1="260.74" x2="237.41" y2="249.45" xlink:href="#Áåçûìÿííûé_ãðàäèåíò_70"/><linearGradient id="Áåçûìÿííûé_ãðàäèåíò_71-4" x1="236.91" y1="115.67" x2="236.91" y2="38.47" xlink:href="#Áåçûìÿííûé_ãðàäèåíò_71"/><linearGradient id="Áåçûìÿííûé_ãðàäèåíò_71-5" x1="208.13" y1="84.52" x2="208.13" y2="61.76" xlink:href="#Áåçûìÿííûé_ãðàäèåíò_71"/><linearGradient id="Áåçûìÿííûé_ãðàäèåíò_387" x1="247.64" y1="93.13" x2="248.6" y2="88.16" gradientUnits="userSpaceOnUse"><stop offset="0" stop-color="#e1616a"/><stop offset="1" stop-color="#ff8883"/></linearGradient><linearGradient id="Áåçûìÿííûé_ãðàäèåíò_48-3" x1="239.03" y1="89.33" x2="239.03" y2="39.59" xlink:href="#Áåçûìÿííûé_ãðàäèåíò_48"/><linearGradient id="Áåçûìÿííûé_ãðàäèåíò_59" x1="236.6" y1="68.96" x2="236.6" y2="59.1" gradientUnits="userSpaceOnUse"><stop offset="0" stop-color="#cf6074"/><stop offset="1" stop-color="#f37270"/></linearGradient><linearGradient id="Áåçûìÿííûé_ãðàäèåíò_184" x1="256.26" y1="72.08" x2="256.26" y2="63.51" gradientUnits="userSpaceOnUse"><stop offset="0" stop-color="#cf6074"/><stop offset="1" stop-color="#ff817f"/></linearGradient><linearGradient id="Áåçûìÿííûé_ãðàäèåíò_48-4" x1="257.06" y1="77.07" x2="257.06" y2="57.78" xlink:href="#Áåçûìÿííûé_ãðàäèåíò_48"/><linearGradient id="Áåçûìÿííûé_ãðàäèåíò_292" x1="237.95" y1="116.65" x2="237.95" y2="23.01" gradientUnits="userSpaceOnUse"><stop offset="0" stop-color="#2e33a0"/><stop offset="1" stop-color="#0665a5"/></linearGradient><linearGradient id="Áåçûìÿííûé_ãðàäèåíò_35" x1="262.54" y1="57.68" x2="262.54" y2="36.08" gradientUnits="userSpaceOnUse"><stop offset="0" stop-color="#ffeadb"/><stop offset="0.99" stop-color="#8860c7"/></linearGradient><linearGradient id="Áåçûìÿííûé_ãðàäèåíò_52" x1="233.11" y1="116.65" x2="233.11" y2="23.01" gradientUnits="userSpaceOnUse"><stop offset="0" stop-color="#ccc2db"/><stop offset="0.99" stop-color="#8860c7"/></linearGradient><linearGradient id="Áåçûìÿííûé_ãðàäèåíò_397" x1="239.39" y1="116.62" x2="239.39" y2="112.6" gradientUnits="userSpaceOnUse"><stop offset="0" stop-color="#776d7e"/><stop offset="1" stop-color="#9d68c2"/></linearGradient><linearGradient id="Áåçûìÿííûé_ãðàäèåíò_141" x1="251.19" y1="29.73" x2="251.19" y2="26.74" gradientUnits="userSpaceOnUse"><stop offset="0" stop-color="#1f77d1"/><stop offset="1" stop-color="#0686c9"/></linearGradient><linearGradient id="Áåçûìÿííûé_ãðàäèåíò_141-2" x1="232.15" y1="39.57" x2="232.15" y2="30.74" xlink:href="#Áåçûìÿííûé_ãðàäèåíò_141"/><linearGradient id="Áåçûìÿííûé_ãðàäèåíò_141-3" x1="264.17" y1="44.05" x2="264.17" y2="36.08" xlink:href="#Áåçûìÿííûé_ãðàäèåíò_141"/><linearGradient id="Áåçûìÿííûé_ãðàäèåíò_285" x1="211.45" y1="79.12" x2="201.25" y2="66.63" gradientUnits="userSpaceOnUse"><stop offset="0" stop-color="#ffeadb"/><stop offset="0.99" stop-color="#b060f4"/></linearGradient><linearGradient id="Áåçûìÿííûé_ãðàäèåíò_285-2" x1="212.51" y1="77.52" x2="207.5" y2="71.37" xlink:href="#Áåçûìÿííûé_ãðàäèåíò_285"/><linearGradient id="Áåçûìÿííûé_ãðàäèåíò_141-4" x1="231.56" y1="40.36" x2="248.82" y2="40.36" xlink:href="#Áåçûìÿííûé_ãðàäèåíò_141"/><linearGradient id="Áåçûìÿííûé_ãðàäèåíò_141-5" x1="255.91" y1="92" x2="261.15" y2="92" xlink:href="#Áåçûìÿííûé_ãðàäèåíò_141"/><linearGradient id="Áåçûìÿííûé_ãðàäèåíò_141-6" x1="249.45" y1="88.11" x2="255.09" y2="88.11" xlink:href="#Áåçûìÿííûé_ãðàäèåíò_141"/><linearGradient id="Áåçûìÿííûé_ãðàäèåíò_89" x1="291.11" y1="101.81" x2="468.17" y2="101.81" gradientUnits="userSpaceOnUse"><stop offset="0" stop-color="#9d68c2"/><stop offset="1" stop-color="#aec2ff"/></linearGradient><linearGradient id="Áåçûìÿííûé_ãðàäèåíò_85" x1="327.13" y1="168.68" x2="327.13" y2="115.28" gradientUnits="userSpaceOnUse"><stop offset="0" stop-color="#ccedff"/><stop offset="1" stop-color="#9d68c2"/></linearGradient><linearGradient id="Áåçûìÿííûé_ãðàäèåíò_85-2" x1="418.19" y1="142.65" x2="418.19" y2="119.12" xlink:href="#Áåçûìÿííûé_ãðàäèåíò_85"/><linearGradient id="Áåçûìÿííûé_ãðàäèåíò_85-3" x1="445.94" y1="142.65" x2="445.94" y2="119.12" xlink:href="#Áåçûìÿííûé_ãðàäèåíò_85"/><linearGradient id="Áåçûìÿííûé_ãðàäèåíò_85-4" x1="389.97" y1="142.65" x2="389.97" y2="119.12" xlink:href="#Áåçûìÿííûé_ãðàäèåíò_85"/><linearGradient id="Áåçûìÿííûé_ãðàäèåíò_65" x1="136.98" y1="84.85" x2="136.98" y2="60.23" gradientUnits="userSpaceOnUse"><stop offset="0" stop-color="#d93de3"/><stop offset="1" stop-color="#ff6dba"/></linearGradient><linearGradient id="Áåçûìÿííûé_ãðàäèåíò_14" x1="152.03" y1="84.85" x2="152.03" y2="60.23" gradientUnits="userSpaceOnUse"><stop offset="0" stop-color="#a242ea"/><stop offset="1" stop-color="#fe117e"/></linearGradient><linearGradient id="Áåçûìÿííûé_ãðàäèåíò_115" x1="132.71" y1="344.23" x2="146.03" y2="238.22" gradientUnits="userSpaceOnUse"><stop offset="0" stop-color="#067eff"/><stop offset="1" stop-color="#3e37a0"/></linearGradient><linearGradient id="Áåçûìÿííûé_ãðàäèåíò_302" x1="443.56" y1="82.17" x2="443.56" y2="73.23" gradientUnits="userSpaceOnUse"><stop offset="0" stop-color="#459fff"/><stop offset="1" stop-color="#a96dff"/></linearGradient><linearGradient id="Áåçûìÿííûé_ãðàäèåíò_302-2" x1="23.57" y1="186.9" x2="23.57" y2="175.78" xlink:href="#Áåçûìÿííûé_ãðàäèåíò_302"/><linearGradient id="Áåçûìÿííûé_ãðàäèåíò_322" x1="456.69" y1="82.17" x2="456.69" y2="73.23" gradientUnits="userSpaceOnUse"><stop offset="0" stop-color="#b31a8f"/><stop offset="1" stop-color="#fe117e"/></linearGradient><linearGradient id="Áåçûìÿííûé_ãðàäèåíò_322-2" x1="168.52" y1="111.59" x2="168.52" y2="105.27" xlink:href="#Áåçûìÿííûé_ãðàäèåíò_322"/><linearGradient id="Áåçûìÿííûé_ãðàäèåíò_25-2" x1="380.17" y1="251.03" x2="380.17" y2="244.71" xlink:href="#Áåçûìÿííûé_ãðàäèåíò_25"/><linearGradient id="Áåçûìÿííûé_ãðàäèåíò_25-3" x1="51.65" y1="282.2" x2="51.65" y2="276.55" xlink:href="#Áåçûìÿííûé_ãðàäèåíò_25"/><linearGradient id="Áåçûìÿííûé_ãðàäèåíò_97" x1="75.36" y1="251.63" x2="75.36" y2="204.97" gradientUnits="userSpaceOnUse"><stop offset="0" stop-color="#d906e3"/><stop offset="1" stop-color="#ff6df9"/></linearGradient><linearGradient id="Áåçûìÿííûé_ãðàäèåíò_97-2" x1="397.55" y1="317.68" x2="397.55" y2="259.31" xlink:href="#Áåçûìÿííûé_ãðàäèåíò_97"/><linearGradient id="Áåçûìÿííûé_ãðàäèåíò_206" x1="343.64" y1="244.07" x2="338.66" y2="201.38" gradientTransform="matrix(0.97, 0.26, -0.26, 0.97, 53.45, -39.97)" gradientUnits="userSpaceOnUse"><stop offset="0" stop-color="#1852a0"/><stop offset="1" stop-color="#067ed3"/></linearGradient><linearGradient id="Áåçûìÿííûé_ãðàäèåíò_206-2" x1="338.81" y1="244.23" x2="338.81" y2="200.48" xlink:href="#Áåçûìÿííûé_ãðàäèåíò_206"/><linearGradient id="Áåçûìÿííûé_ãðàäèåíò_107" x1="301.25" y1="258.13" x2="298.03" y2="230.52" gradientTransform="matrix(0.94, 0.33, -0.52, 1.49, 161.73, -200.75)" gradientUnits="userSpaceOnUse"><stop offset="0" stop-color="#188dc1"/><stop offset="1" stop-color="#06bfe7"/></linearGradient><linearGradient id="Áåçûìÿííûé_ãðàäèåíò_107-2" x1="351.67" y1="56.96" x2="363" y2="14.88" gradientTransform="matrix(1, 0, 0, 1, 0, 0)" xlink:href="#Áåçûìÿííûé_ãðàäèåíò_107"/><linearGradient id="Áåçûìÿííûé_ãðàäèåíò_206-3" x1="332.19" y1="52.11" x2="340.64" y2="20.72" gradientTransform="matrix(1, 0, 0, 1, 0, 0)" xlink:href="#Áåçûìÿííûé_ãðàäèåíò_206"/><linearGradient id="Áåçûìÿííûé_ãðàäèåíò_107-3" x1="61.24" y1="129.43" x2="68.96" y2="100.74" gradientTransform="matrix(-1, 0, 0, 1, 85.29, 0)" xlink:href="#Áåçûìÿííûé_ãðàäèåíò_107"/><linearGradient id="Áåçûìÿííûé_ãðàäèåíò_206-4" x1="47.96" y1="126.12" x2="53.72" y2="104.73" gradientTransform="matrix(-1, 0, 0, 1, 85.29, 0)" xlink:href="#Áåçûìÿííûé_ãðàäèåíò_206"/></defs><g class="cls-2"><g id="illustration"><g class="cls-3"><path class="cls-4" d="M87.53,165c0-.25.12-.37.35-.36l6.71.2a5.15,5.15,0,0,1,1.69.31,2.89,2.89,0,0,1,1.11.74A3,3,0,0,1,98,167a5.31,5.31,0,0,1,.15,1.48l-.06,1.84a4.7,4.7,0,0,1-.24,1.46,2.73,2.73,0,0,1-.66,1.1,2.84,2.84,0,0,1-1.15.68,5.12,5.12,0,0,1-1.7.2l-3.61-.11L90,171.53h-.1l-.06,2.09-2.53-.08Zm2.34,6.33,4.28.13a1.41,1.41,0,0,0,1-.29,1.65,1.65,0,0,0,.34-1.12l0-1.5a1.54,1.54,0,0,0-.27-1.14,1.46,1.46,0,0,0-1-.34l-4.11-.12a.15.15,0,0,0-.13.05.22.22,0,0,0-.06.13Z"/><path class="cls-4" d="M101.76,168.8h-.09l-.08,2.68c0,.12,0,.18.17.18l7.54.23-.07,2.32-9.89-.3c-.24,0-.35-.13-.34-.38l.25-8.21a.31.31,0,0,1,.36-.35l9.61.29c.25,0,.37.13.36.38l-.07,2.32-2.38.8H107l0-1.19c0-.09,0-.14-.12-.14l-5.07-.16a.14.14,0,0,0-.13.05.27.27,0,0,0,0,.12l0,1.12,4.18.13-.06,1.81-3.5-.1Z"/><path class="cls-4" d="M118.53,168.63h-.1l0-1a.14.14,0,0,0-.15-.15l-4.71-.14a.38.38,0,0,0-.47.41V168c0,.17,0,.28.08.33a.66.66,0,0,0,.33.12l5.52.94a3.72,3.72,0,0,1,.9.26,1.85,1.85,0,0,1,.59.42,1.44,1.44,0,0,1,.31.63,3.37,3.37,0,0,1,.07.88l0,.71a3.11,3.11,0,0,1-.17,1,1.68,1.68,0,0,1-.46.7,1.87,1.87,0,0,1-.82.41,4.27,4.27,0,0,1-1.25.11l-8-.24.07-2.32,7.14.22a.6.6,0,0,0,.43-.11.59.59,0,0,0,.11-.41v-.24a.54.54,0,0,0-.07-.33.5.5,0,0,0-.31-.13l-5.34-.83a5.75,5.75,0,0,1-.92-.25,1.88,1.88,0,0,1-.62-.42,1.4,1.4,0,0,1-.34-.61,3.11,3.11,0,0,1-.08-.85l0-.63a2.08,2.08,0,0,1,.56-1.49,2.37,2.37,0,0,1,1.74-.48l7.94.24a.35.35,0,0,1,.37.41l0,1.84Z"/><path class="cls-4" d="M121.88,174.58l.28-8.94,2.53.08-.27,8.94Z"/><path class="cls-4" d="M133.81,171.11c0-.13,0-.27,0-.41s0-.27,0-.38v-.11l2.51.08-.13,4.38c0,.23-.12.34-.32.34l-6.73-.21a5.06,5.06,0,0,1-1.69-.3,2.8,2.8,0,0,1-1.11-.75,2.61,2.61,0,0,1-.59-1.13,5,5,0,0,1-.15-1.48l0-1.84a5.37,5.37,0,0,1,.24-1.46,2.89,2.89,0,0,1,.66-1.1,2.77,2.77,0,0,1,1.16-.68,5.09,5.09,0,0,1,1.7-.2l6.69.2a.33.33,0,0,1,.35.38l-.06,1.93-2.37.79h-.1l0-.86c0-.08,0-.13-.1-.13l-4.28-.13a2.32,2.32,0,0,0-.62.05.85.85,0,0,0-.42.22.93.93,0,0,0-.24.44,2.51,2.51,0,0,0-.1.68l0,1.57a1.65,1.65,0,0,0,.28,1.14,1.39,1.39,0,0,0,1,.35l4.24.13c.09,0,.13-.05.14-.15Z"/><path class="cls-4" d="M141.63,166.23a.75.75,0,0,1,.4.1.81.81,0,0,1,.2.28l3.2,6.53a.26.26,0,0,0,.23.15h.13a.18.18,0,0,0,.21-.19l.2-6.73,2.3.07-.26,8.59a.31.31,0,0,1-.36.34l-3.64-.11a.74.74,0,0,1-.38-.08.72.72,0,0,1-.23-.29l-3.32-6.52a.26.26,0,0,0-.23-.16H140c-.13,0-.2.06-.2.19l-.21,6.72-2.3-.07.26-8.57q0-.37.36-.36Z"/><circle class="cls-5" cx="208.36" cy="164.39" r="155.02" transform="translate(-55.21 195.49) rotate(-45)"/><path class="cls-6" d="M94.41,154.47a23.77,23.77,0,0,0-10.55-9.26l-2.35,1.1,5.29,9.6a10.26,10.26,0,0,1-3.24,5.72v0a10.23,10.23,0,0,1-6.46-1.18l-4-10.22-2.35,1.09a23.85,23.85,0,0,0,.33,14s1,2.32,1.18,2.52c.93,1.09,3.36,2.34,8,2l16.21,30.91a8.47,8.47,0,1,0,8.76-4.09L92,164.48c3.17-3.34,3.84-6,3.6-7.49C95.54,156.67,94.41,154.47,94.41,154.47Zm13.33,53.31-4.29,2-3.89-2.72.41-4.72,4.3-2,3.88,2.71Z"/><path class="cls-7" d="M95.59,157A23.88,23.88,0,0,0,85,147.72l-2.35,1.1,5.3,9.61a10.33,10.33,0,0,1-3.24,5.72v0a10.28,10.28,0,0,1-6.46-1.19l-4-10.22-2.36,1.1a23.79,23.79,0,0,0,.34,14s3.66,4.91,9.23,4.57l16.2,30.91a8.48,8.48,0,1,0,8.76-4.09L93.17,167C97,163,95.59,157,95.59,157Zm13.32,53.31-4.29,2-3.88-2.71.41-4.72,4.29-2,3.88,2.71Z"/><rect class="cls-8" x="71.24" y="150.62" width="2.59" height="2.78" transform="translate(-57.53 44.99) rotate(-25.04)"/><rect class="cls-8" x="81.97" y="145.63" width="2.59" height="2.78" transform="translate(-54.4 49.07) rotate(-25.04)"/><rect class="cls-8" x="103.81" y="208.65" width="4.74" height="2.78" transform="translate(-78.93 64.69) rotate(-25.04)"/><path class="cls-9" d="M85,174.72l13.09,25.15a6.41,6.41,0,0,0,5.28-2.46L92.69,171.12A10,10,0,0,0,85,174.72Zm17.36,22.89a7.23,7.23,0,0,1-1.7,1.11,6.44,6.44,0,0,1-1.8.54L85.73,174.62a13.78,13.78,0,0,1,3.15-2.06,11,11,0,0,1,3.24-1Z"/><path class="cls-8" d="M102.34,197.61l1-.2a5.66,5.66,0,0,1-5.28,2.46l.77-.61A7.17,7.17,0,0,0,102.34,197.61Z"/><path class="cls-10" d="M85,174.72l.75-.1a12.21,12.21,0,0,1,6.39-3l.57-.48a9.83,9.83,0,0,0-7.71,3.6Z"/><path class="cls-11" d="M81.51,172.43A28.93,28.93,0,0,0,93.17,167l1.7,4.12s-1.93-1.91-6.17-.18c-5,2-4.68,6-4.68,6Z"/><path class="cls-12" d="M94.87,171.12a5.15,5.15,0,0,0-2.59-.89L105,200.82l1.52-1.57Z"/><path class="cls-13" d="M94.87,171.12s-1.33,4.09,2.49,6Z"/><path class="cls-14" d="M285.55,368.86h-47C233.62,341.54,222.18,306,222.18,306c-2.78-1.65-8.21.38-8.21.38l-17.18,62.49H153.85c-2.28-38.56,18.82-82.33,18.82-82.33h0a4.73,4.73,0,0,1-.56-2.39,5.68,5.68,0,0,1,1.6-1.86c1.16-1.06,2.54-2.12,2.54-2.12l80.11-.5s.81.41,1.84,1h0c1.75,1.06,4.12,2.7,4.12,3.9a5.47,5.47,0,0,1-.81,3l0,0C278.65,320,285.55,368.86,285.55,368.86Z"/><ellipse class="cls-15" cx="176.17" cy="336.78" rx="46.31" ry="17.92" transform="translate(-191.59 432.73) rotate(-77.01)"/><ellipse class="cls-16" cx="259.37" cy="336.33" rx="17.92" ry="46.31" transform="translate(-81.13 82.46) rotate(-15.65)"/><path class="cls-17" d="M191.24,368.9l-.5-.08c5.47-32.2,19.34-59.2,19.48-59.47l.06-.08,3.53-3.09.33.38-3.5,3.06C210,310.84,196.59,337.38,191.24,368.9Z"/><path class="cls-18" d="M244.93,368.9c-5.36-31.55-19.16-58.34-19.78-59.53L222,306.56l.33-.37,3.22,2.9c.14.28,14.38,27.53,19.85,59.73Z"/><path class="cls-19" d="M262.32,284.58a5.47,5.47,0,0,1-.81,3l0,0c-16.68,3.77-29.37,19.34-29.37,19.34,9.09,17.44,24.25,61.93,24.25,61.93H238.54C233.62,341.54,222.18,306,222.18,306c-2.78-1.65-8.21.38-8.21.38l-17.18,62.49H185.67c4-26.18,15.73-58.14,15.73-58.14-11.55-13.45-28.73-24.19-28.73-24.19h0l-2-1.28,1.48-1.11c7.43,7.13,31.39,16.44,32.13,16.73L173.7,282.27c1.16-1.06,2.54-2.12,2.54-2.12l80.11-.5s.81.41,1.84,1l-21.88,12Z"/><polygon class="cls-20" points="222.19 305.99 231.54 299.93 229.31 305.99 227.69 324.26 222.19 305.99"/><polygon class="cls-21" points="213.97 306.37 204.24 300.86 183.38 291.47 209.94 309.02 211.52 315.31 213.97 306.37"/><path class="cls-22" d="M240.77,118.51c.06.43.11.66.11.66a57.27,57.27,0,0,1-1.66,5.66A46,46,0,0,1,233,137a23.85,23.85,0,0,1-2.72,3.18c-14.59-4.58-21.78-18.85-24.54-25.95a.36.36,0,0,1,0-.11c-.53-1.34-.88-2.42-1.1-3.12h0c-.17-.56-.25-.87-.25-.87l.18-.37,0,0c.24-.5.48-1,.7-1.5a71.16,71.16,0,0,0,4-11.17c.71-2.62,1.09-4.64,1.27-5.71.09-.55.13-.85.13-.85l6.8,3.59,23.43,12.4a38.55,38.55,0,0,0-.5,5.94c0,1.25,0,2.37.09,3.32.07,1.16.19,2.08.28,2.68h0A.68.68,0,0,0,240.77,118.51Z"/><path class="cls-23" d="M234.27,141.7a20.1,20.1,0,0,1-4.84,3.54l-.12.07-.14-.08h0c-.51-.31-2.25-1.38-4.59-3.14-6.12-4.61-16.34-13.93-19.26-26.49l0,0a31.14,31.14,0,0,1-.7-4.59h0c0-.41-.06-.82-.07-1.24a64.43,64.43,0,0,0,5.55,9.92c4.14,6.06,10.35,12.67,17.77,12.71,6.42,0,9.71-4.35,11.38-8.4a22.92,22.92,0,0,0,1.35-4.6v0c.07-.36.12-.68.17-1h0c0-.14,0-.26.05-.37.06-.45.08-.71.08-.71S243.34,132.63,234.27,141.7Z"/><path class="cls-24" d="M234.27,141.7a20.1,20.1,0,0,1-4.84,3.54h-.27c-.51-.31-2.25-1.38-4.59-3.14-6.12-4.61-16.34-13.93-19.26-26.49l0,0a31.14,31.14,0,0,1-.7-4.59h0c0-.41-.06-.82-.07-1.24a64.43,64.43,0,0,0,5.55,9.92s4,11.1,12.78,16.6c4.38,2.75,7.7,2.35,10.14.73a15.09,15.09,0,0,0,4.95-6.54,15.38,15.38,0,0,0,1.28-5.58q0-.49,0-.9a22.92,22.92,0,0,0,1.35-4.6v0c.07-.36.12-.68.17-1h0c0-.14,0-.26.05-.37.06-.45.08-.71.08-.71S243.34,132.63,234.27,141.7Z"/><path class="cls-25" d="M290.43,232.39l-.16.08c-.82.1-3.37-.46-6.71-3.35h0s0,0,0,0l0,0c-2.8-2.45-6.16-6.54-9.51-13.24-6.7-13.39-8.62-22.33-8.93-23.89l0-.24-3.91,6.2c-2.65,8-7.67,40.95-7.58,42.37s4.45,8.34,4.36,9.19v0c-.12.86-2.08,2.75-2.64,4.81-.38,1.37,2.28,5.69,4.15,8.92h0a13.13,13.13,0,0,1,1.72,3.58c0,1.51-4.74,8.9-4.74,8.9v4l-.07.07-.22.2-.18.15c-1.8,1.42-9.43,6.07-33.27,7.35-28.25,1.51-47.07-7.58-47.07-7.58L177,276s-1.32-1.13-1.42-1.7,1-1.9,1-1.9-2.84-1.51-2.84-3.41,5.69-7.76,5.5-12.79-4.55-9.47-5.12-12.31,7.39-9.85,7.39-9.85c-6.82-21.6-8.15-50.59-8.15-50.59L172,181.88s-8.15,18.57-15.54,27.66c-.88,1.08-1.81,2.15-2.77,3.18a81,81,0,0,1-6.36,6.15c-5.12,4.46-9.77,7.39-11,7.16-1.9-.38-9.48-15.35-9.13-30.7.16-7.3,4.56-15.47,9.13-22,.49-.7,1-1.39,1.48-2.06a104.89,104.89,0,0,1,7.84-9.45c.58-.62.91-1,.91-1s-1-3.35-1.75-6.26a1.6,1.6,0,0,0-.05-.21.36.36,0,0,0,0-.1.31.31,0,0,0,0-.07c-.42-1.79-.68-3.34-.44-3.72.63-1,4.3-2.15,4.93-2.9s3.28-13.52,5.3-14.91,5.35-2.3,16.72-6.77l1.73-.68c12.75-5,25.26-11.18,25.26-11.18l4.8-5.9h2.14l-.7,1.5,0,0c.34,1.52.73,3,1.17,4.37a.36.36,0,0,0,0,.11c6.6,20.82,23.58,27.53,23.58,27.53,11.8-8.71,11.57-22.54,11.57-22.54v-1.9l2.21.66,1.51,3.6s2.56,4,12.7,8.44a60.32,60.32,0,0,1,5.57,2.85c9.28,5.27,19.6,13.42,20.39,15.15a5.61,5.61,0,0,1,.27.86h0c1.09,4.28,3.33,20.31,5.41,26a13.1,13.1,0,0,0,4.86,6.56h0a7.61,7.61,0,0,0,1.94,1q.24,1.32.45,2.61C300.56,212.48,292.29,231.09,290.43,232.39Z"/><path class="cls-26" d="M181.6,180.63l-8.24,2.77L172,181.88s-8.15,18.57-15.54,27.66c-.88,1.08-1.81,2.15-2.77,3.18a81,81,0,0,1-6.36,6.15l-6.28-27.07-3.19-20.55a104.89,104.89,0,0,1,7.84-9.45c.58-.62.91-1,.91-1s-1-3.35-1.75-6.26a1.6,1.6,0,0,0-.05-.21.36.36,0,0,0,0-.1.31.31,0,0,0,0-.07c-.42-1.79-.68-3.34-.44-3.72.63-1,4.3-2.15,4.93-2.9s3.28-13.52,5.3-14.91c0,0-1.32,12.25,5.69,27.79l3.41,4.8,10,8S177.47,178.32,181.6,180.63Z"/><path class="cls-27" d="M157.76,202.79C156,215.92,136.42,226,136.42,226c-4.36,0-9.23-7.58-13.65-16.93s-4.69-36.21-4.92-37.87-2.7-5-2.85-6.4,4-4.36,4-4.36l0-.07,0-.07c-.43-.92-2.85-6.11-2.68-7.06s4.82-3.31,4.82-3.31l.29,5.11s10.78-2,14.43-10.39l.64-2.56,1.8,1.2v11s.37,1.71.94,1.71,4.77-2.1,5.65-1.81,1.76,6.17,2.94,6.92,4.3,2.94,4.77,4a19,19,0,0,1,.25,4.15,42.4,42.4,0,0,0,.41,6.94C153.85,179.13,159.53,189.65,157.76,202.79Z"/><path class="cls-28" d="M336.75,191.54c-.88,1.39-5.3,4.3-6.44,5.44s0,4.87,0,4.87a153.35,153.35,0,0,1-39.88,30.54l-.16.08c-11.66-7.84-10.66-20.75-6.79-31.63a82.1,82.1,0,0,1,10.32-19.38h0a24.41,24.41,0,0,1,5.92-1.64,3.59,3.59,0,0,1,2.19.68c1.42.88,2.62,2.27,3.78,1.69,1.71-.86,5.53-9.89,8.12-10.14,1.81-.17,4.32,1.67,6,2.72.73.46,1.3.77,1.58.69,1-.25,4.17-4.11,4.43-4.21s1.72,1,1.72,1l-1,1.28a35,35,0,0,0,6.76,15.22l3.47-5.08S337.64,190.15,336.75,191.54Z"/><path class="cls-29" d="M240.82,118.12c0,.13,0,.26,0,.39a7.73,7.73,0,0,1-.19.8v0c-1.19,4.41-6,8.92-12.07,6.75-6.63-2.37-19.25-29.1-19.25-29.1l1.27-5.71,29.95,24.4.33,2.31Z"/><path class="cls-30" d="M141.09,113.23s-1.83-10.1-1-17.56a80.83,80.83,0,0,0-.21-15.91,4,4,0,0,0-3.13,0c-1.33.76-4.43,8.46-3,14.65s.32,21,.32,21h-2.08l-4.55-6.25-2.21-.63s-12.73,12-12.54,19.13L114.3,134,130,133.5l10.23-11.68Z"/><path class="cls-31" d="M125.18,108.56a81.75,81.75,0,0,0,2.11,14.78,3.53,3.53,0,0,1-3.56,3l-.81-.9s-.57,3.17-3.46,3.41l-2.75-2.75.72,2.28a3.9,3.9,0,0,1-3.6,2.32s-4.36-3.41-4.65-7.86l4.31-3.65v-2.8l5.12-3.6.09-2A12,12,0,0,1,125.18,108.56Z"/><path class="cls-32" d="M140.27,93.53a7.17,7.17,0,0,1-1.86,2.71,16,16,0,0,1-4.25,1.34L134,115.44h-2.08l-4.55-6.25s2.3,3.57,2.45,6.25l-1.8.89L126.47,111l-.74,3.86.74,4.79A12.57,12.57,0,0,1,134,117.2l.74,1.34s-8.83,7.31-10.87,11.62c0,0,4.36-5.54,14.31-11.66l.95-2.93,1.25-7S139.23,98.45,140.27,93.53Z"/><path class="cls-33" d="M147.66,124.66c-.82,2.46-9.41,12.69-10.36,14.91a30,30,0,0,0-1.52,5.11c-4.22,9.13-14.43,10.39-14.43,10.39l-.47-8.24s-5.49-3.16-6.42-4.89v0l-.11-.29a68.8,68.8,0,0,1,0-7.58l9.61-3.89c4.17-5.4,14.31-11.65,14.31-11.65l.47-2.83c-7.28-3.58-6.06-14.41-4.83-15.74a5.4,5.4,0,0,1,3.5-1.32s2.66,8.71,4.36,12.79S148.48,122.2,147.66,124.66Z"/><path class="cls-34" d="M118.7,110.74s1.08,9.94,4.22,14.68a23.22,23.22,0,0,1-4.31-12.65Z"/><path class="cls-34" d="M113.49,116.37s1.05,8,6,12.46c0,0-4.36-2.18-6-9.66Z"/><path class="cls-35" d="M138.64,137.45S127.8,148,120.88,146.83l.47,8.24a18.27,18.27,0,0,0,15.07-12.95A30.87,30.87,0,0,1,138.64,137.45Z"/><path class="cls-36" d="M367.67,151.75s-9.95,18.19-21.6,23.78h-4l-9.19,13.93s-5.94-3.73-6.38-16a11.17,11.17,0,0,0,2.59-4.62s-3.28-2.58-4.17-4.47-1.2-7.58-1.83-9.92-6-7.2-7.2-7.83-6.63-.95-6.63-.95-.76-2,0-2.9,9.22-4.24,13.83-1.08a20.77,20.77,0,0,0,.82,3.67c.51,1.26,4.55,5.74,5.18,5.74s3.35-2.27,4.55-4a178.56,178.56,0,0,0,8.74-19.32.5.5,0,0,1,0-.13c0-.07.05-.14.06-.2a.93.93,0,0,0,0-.13s0,0,0,0c1.14-3.85,7.77-11.24,11.31-13.26a2.09,2.09,0,0,1,2.33,1.51s-2.84,8.09-5.81,12.89c-.5.81-1,1.76-1.6,2.78h0c-2.53,4.65-5.38,10.74-5.79,11.63l-.05.11,1.58.81,4.27-4.05,4.38-4.15,10.05,10.61-1,1.26-3.14,4,1.59.29,3.7-4.09Z"/><path class="cls-37" d="M365.35,155.62l-3.18,4.67s-17.46-13.46-21.25-14.6-5.18-.38-5.18-.38l-3.91,5s7.2,6.38,7.83,15c0,0-2.4-10.86-10.55-14.15.63,0,3.35-2.27,4.55-4a178.56,178.56,0,0,0,8.74-19.32,5,5,0,0,0,.16,3.41c.86,1.59,5.92.09,6.22,0h0L343,142.8l-.05.11,1.58.81,4.27-4.05-2.14,5,15.58,2.75-3.14,4,1.59.29Z"/><path class="cls-38" d="M353.18,135.53s3-.45,5,3.47l-.44,1.26s2.95.58,5.81,5.37a16.23,16.23,0,0,1-8.78,6.7s-2.91-.83-3.41-3.29l.56-1.58-2.27,1.71s-2.71.82-3.91-3.22Z"/><path class="cls-39" d="M368.59,150.49a4.69,4.69,0,0,0-2.46-4.8l-6,6.64a3.1,3.1,0,0,0,2.77,2.59S367,153.53,368.59,150.49Z"/><path class="cls-40" d="M324.94,164.39a44.56,44.56,0,0,0,17.15,11.14l-4.39,6.66-9.17-11.64.58-1.69S325.45,166.1,324.94,164.39Z"/><path class="cls-34" d="M357.73,140.26s-2.91,4.8-5.82,7.2l-.56,1.58s5.64-3.8,7.71-8.2A3.66,3.66,0,0,0,357.73,140.26Z"/><path class="cls-41" d="M336.75,191.54c-.88,1.39-5.3,4.3-6.44,5.44s0,4.87,0,4.87a153.35,153.35,0,0,1-39.88,30.54l-.16.08c-1.52.19-8.91-1.89-16.3-16.67-6.7-13.39-8.62-22.33-8.93-23.89l0-.24,1.63-2.21,2.42-27.28,1.7,5.49c6.44-7.77,12.51-19.7,12.51-19.7l.27.86h0c1.09,4.28,3.33,20.31,5.41,26a13.1,13.1,0,0,0,4.86,6.56v0h0c-5.93,5.41-8.87,13.19-10.32,19.38a53.68,53.68,0,0,0-1.42,10,67.43,67.43,0,0,1,6.82-17,36.5,36.5,0,0,1,7.33-8.85,58.85,58.85,0,0,1,5.72-4.58c1.42.88,2.62,2.27,3.78,1.69-7.8,11.71-7.61,34.89-.28,30.47s9-13.8,9-13.8c-1.73-11.43-1.21-24.32.18-26.77,1.68.06,6.51,3.45,6.79,3.37a39.6,39.6,0,0,0,5.88,22.43l4.17-6.45a40,40,0,0,1-5.62-20.19c.25-.11,1.72,1,1.72,1l-1,1.28a35,35,0,0,0,6.76,15.22l3.47-5.08S337.64,190.15,336.75,191.54Z"/><path class="cls-42" d="M256.35,275.67v4l-.07.07-.22.2-.18.15c-1.8,1.42-9.43,6.07-33.27,7.35-28.25,1.51-47.07-7.58-47.07-7.58L177,276s-1.32-1.13-1.42-1.7,1-1.9,1-1.9-2.84-1.51-2.84-3.41c0-1.71,4.64-6.66,5.39-11.31a6.76,6.76,0,0,0,.11-1.48c-.19-5-4.51-9.43-5.11-12.27v0c-.57-2.84,7.39-9.85,7.39-9.85-6.82-21.6-8.15-50.59-8.15-50.59L172,181.88s-8.15,18.57-15.54,27.66S138.31,226.41,136.42,226c-4.36,0-9.23-7.58-13.65-16.93s-4.69-36.21-4.92-37.87-2.7-5-2.85-6.4c4.74,8.15,12.29,5.75,12.29,5.75-5.47.12-8.31-10.11-8.31-10.11l0-.07,0-.07-2.67-7.05c.3.34,6.55,7.33,12.59,3,6.19-4.42,9.38-13,9.38-13v11s.37,1.71.94,1.71a134.15,134.15,0,0,1-2.74,17.29c-2.81,13.13-6.66,25.81-6.66,25.81s10.44-5.68,14.11-20.08a60.74,60.74,0,0,0,1.87-17.24,43.22,43.22,0,0,0-.84-7.21,1.6,1.6,0,0,0-.05-.21.36.36,0,0,0,0-.1.43.43,0,0,0,0-.05l1,2.14,1.92,4.76c2.23,18.48-2.37,46.33-2.37,46.33,6.7-8.34,8.09-26.78,7.8-31.26-.13-2.14-.3-4.78-.41-6.94-.15-2.36-.25-4.15-.25-4.15l13.71,8.18-2.53-8,10,8s9,10.8,18.19,12.06,43.07.51,43.07.51-29.43,1.89-38,4.42-10.23,5.43-10.23,5.43c6.21,31.59,40.58,42.24,41.65,42.56-31.18-4.68-45.69-31.19-45.69-31.19s-.51,14.91,1.89,20.59,16.55,19.58,34.74,22.48a41.89,41.89,0,0,0,4.53.46c15.34.72,28-7.12,29.34-8l.11-.07,0,0c-.49.75-6.78,9.59-32.18,10.56-1.54.06-3,.05-4.5,0h0C193,252.19,181,236.51,181,236.51s-8.71,4.68-3.15,11.62l.18.22c1.64,1.89,5.25,4.2,9.52,6.58l.35.2c5.16,2.85,11.21,5.79,15.89,8.22l.07,0a59.23,59.23,0,0,1,6.52,3.73h0c1.32,1,1.59,1.58.3,1.73-6.57.76-31.45-4.67-32.46-3.16s1.23,5.43,1.23,5.43c22.84,11.32,71.71,5.74,73.25,5.57-40.9,10.47-74.36-2.79-74.36-2.79l1.11,3.92a146.33,146.33,0,0,0,39.69,6.82c21.48.5,34.87-5,34.87-5Z"/><path class="cls-43" d="M239.62,185.74s16.27.88,27,3.72l-5.55,8.41A73.71,73.71,0,0,0,239.62,185.74Z"/><path class="cls-44" d="M254.82,230.58S244.67,239,234.69,243a67.51,67.51,0,0,1-19.58,4.29s5.74,1.71,19.86-.57,18.94-9.92,18.94-9.92Z"/><path class="cls-45" d="M259.37,263.18h0c-18.78,4.85-42.62-2.11-42.42-3s6.53.38,21.21-2.56c14.23-2.85,19.39-7.91,19.7-8.22-.12.86-2.08,2.75-2.64,4.81C254.84,255.63,257.5,260,259.37,263.18Z"/><path class="cls-46" d="M208.36,188.28c-16,1.63-20.36,6.1-20.36,6.1-4.51.57-14.64-11-14.64-11L172,181.88s-8.15,18.57-15.54,27.66c-.88,1.08-1.81,2.15-2.77,3.18l1.05-2.36s1.72-.82,2.22-9.85-3.79-22.48-3.82-24.31-.66-11.09-.66-11.09l13.71,8.18-2.53-8,10,8s3.91,5.88,13.78,10.78C196.77,188.7,207.21,188.33,208.36,188.28Z"/><path class="cls-47" d="M172,181.88l9.56-1.25a71.13,71.13,0,0,0,11.49,5.66l-6.4,9.42s2.54,13.44,9.82,21c0,0-19.32-10.73-22-19.75Z"/><path class="cls-48" d="M116.25,153.28l2.73,7.19s2.79,9.71,8.31,10.11,10.93-16.27,10.93-16.27v-11s-5.87,12.61-12.22,14S116.25,153.28,116.25,153.28Z"/><path class="cls-49" d="M149.3,147.59s4.93,9.85,11,12.88c0,0-7.21-17.49-5.69-27.79C154.6,132.68,152,134.33,149.3,147.59Z"/><path class="cls-50" d="M269.05,162.18l1.7,5.49,1.73,45.05A108.67,108.67,0,0,1,265,191.91l1.6-2.45S269.31,172.48,269.05,162.18Z"/><path class="cls-51" d="M321.4,175.44s-1,22.13,8.45,24.05l.46,2.36S318.15,201.4,321.4,175.44Z"/><path class="cls-52" d="M305.71,182.17s-.36.8-3.78-1.69c0,0-11.83,8.38-16.38,20.19,0,0,7.29-10.85,11.17-12s4.82,3.15,4.82,3.15S303.07,185.7,305.71,182.17Z"/><path class="cls-53" d="M115,164.83s4.56,8.39,13.08,5.76c0,0-5.11,3.44-10.23.64C117.85,171.23,114.68,165.78,115,164.83Z"/><path class="cls-54" d="M144.81,154.21s6.26,23.4-10.06,41a27.11,27.11,0,0,0,13-18A38.7,38.7,0,0,0,144.81,154.21Z"/><path class="cls-55" d="M257,135.51s-.7,10.56-5.76,18.14-15.11,12.7-15.11,12.7,12.6-4.65,18.38-11.18S257,135.51,257,135.51Z"/><path class="cls-56" d="M192.5,119.62a66.6,66.6,0,0,0,2.85,17.83c2.84,9,27.51,24.73,27.51,24.73s-25.43-10.56-30.36-20.06S192.5,119.62,192.5,119.62Z"/><path class="cls-57" d="M192.22,161.68v14.38s33.11-.27,70.23,2.19l.85-12.94A646.44,646.44,0,0,0,192.22,161.68Z"/><path class="cls-58" d="M198.35,165q0-.37.36-.36l6.71.2a5.15,5.15,0,0,1,1.69.31,2.77,2.77,0,0,1,1.1.74,2.84,2.84,0,0,1,.6,1.14,5.71,5.71,0,0,1,.15,1.48l-.06,1.84a4.7,4.7,0,0,1-.24,1.46,2.73,2.73,0,0,1-.66,1.1,2.84,2.84,0,0,1-1.15.68,5.12,5.12,0,0,1-1.7.2l-3.62-.11-.74-2.11h-.1l-.06,2.09-2.54-.08Zm2.35,6.33,4.28.13a1.42,1.42,0,0,0,1.05-.29,1.65,1.65,0,0,0,.34-1.12l0-1.5a1.54,1.54,0,0,0-.27-1.14,1.46,1.46,0,0,0-1-.34l-4.11-.12a.15.15,0,0,0-.13.05.18.18,0,0,0-.06.13Z"/><path class="cls-58" d="M212.59,168.8h-.09l-.08,2.68c0,.12.05.18.17.18l7.54.23-.07,2.32-9.89-.3c-.24,0-.35-.13-.34-.38l.25-8.21a.31.31,0,0,1,.36-.35l9.61.29a.33.33,0,0,1,.36.38l-.07,2.32-2.38.8h-.1l0-1.19c0-.09,0-.14-.12-.14l-5.07-.16a.14.14,0,0,0-.13.05.56.56,0,0,0,0,.12l0,1.12,4.18.13-.06,1.81-3.5-.1Z"/><path class="cls-58" d="M229.35,168.63h-.09l0-1a.14.14,0,0,0-.15-.15l-4.71-.14a.38.38,0,0,0-.47.41V168c0,.17,0,.28.08.33a.66.66,0,0,0,.33.12l5.52.94a3.5,3.5,0,0,1,.89.26,1.65,1.65,0,0,1,.59.42,1.45,1.45,0,0,1,.32.63,3.37,3.37,0,0,1,.07.88l0,.71a3.11,3.11,0,0,1-.17,1,1.68,1.68,0,0,1-.46.7,1.85,1.85,0,0,1-.83.41,4.17,4.17,0,0,1-1.24.11l-8-.24.07-2.32,7.14.22a.56.56,0,0,0,.42-.11.59.59,0,0,0,.12-.41v-.24a.54.54,0,0,0-.07-.33.5.5,0,0,0-.31-.13l-5.34-.83a5.47,5.47,0,0,1-.92-.25,1.88,1.88,0,0,1-.62-.42,1.4,1.4,0,0,1-.34-.61,3.11,3.11,0,0,1-.08-.85l0-.63a2.08,2.08,0,0,1,.56-1.49,2.36,2.36,0,0,1,1.74-.48l7.94.24a.35.35,0,0,1,.37.41l-.05,1.84Z"/><path class="cls-58" d="M232.71,174.58l.28-8.94,2.53.08-.27,8.94Z"/><path class="cls-58" d="M244.64,171.11c0-.13,0-.27,0-.41s0-.27,0-.38v-.11l2.51.08-.14,4.38c0,.23-.11.34-.31.34l-6.73-.21a5.06,5.06,0,0,1-1.69-.3,2.8,2.8,0,0,1-1.11-.75,2.61,2.61,0,0,1-.59-1.13,5.29,5.29,0,0,1-.16-1.48l.06-1.84a5.37,5.37,0,0,1,.24-1.46,2.89,2.89,0,0,1,.66-1.1,2.8,2.8,0,0,1,1.15-.68,5.18,5.18,0,0,1,1.71-.2l6.69.2a.33.33,0,0,1,.35.38l-.06,1.93-2.37.79h-.1l0-.86c0-.08,0-.13-.1-.13l-4.28-.13a2.32,2.32,0,0,0-.62.05.85.85,0,0,0-.42.22,1,1,0,0,0-.25.44,3,3,0,0,0-.09.68l-.05,1.57a1.71,1.71,0,0,0,.27,1.14,1.42,1.42,0,0,0,1,.35l4.24.13c.09,0,.13-.05.13-.15Z"/><path class="cls-58" d="M252.46,166.23a.75.75,0,0,1,.4.1.81.81,0,0,1,.2.28l3.2,6.53a.26.26,0,0,0,.23.15h.13a.17.17,0,0,0,.2-.19l.21-6.73,2.3.07-.27,8.59a.3.3,0,0,1-.35.34l-3.64-.11a.74.74,0,0,1-.38-.08.64.64,0,0,1-.23-.29l-3.32-6.52a.26.26,0,0,0-.23-.16h-.12c-.13,0-.2.06-.2.19l-.21,6.72-2.3-.07.26-8.57q0-.37.36-.36Z"/><path class="cls-59" d="M244.6,121.53c-.78,9.3-3.61,15.78-6.63,20.15-4.16,6-8.66,8-8.66,8a52,52,0,0,1-11.76-7.09,60,60,0,0,1-19.21-28.5c6,14.54,14.86,23.35,21.56,28.31a43.28,43.28,0,0,0,9.41,5.52v-4.65a30.9,30.9,0,0,1-3.1-1.36c-11.8-6-18-18.35-20.9-26.37l0,0a57,57,0,0,1-2.18-7.39h2.14l-.7,1.5,0,0c.34,1.52.73,3,1.17,4.37a.36.36,0,0,0,0,.11c6.6,20.82,23.58,27.53,23.58,27.53,11.8-8.71,11.57-22.54,11.57-22.54v-1.9l2.21.66Z"/><path class="cls-60" d="M314.61,172.07s-3.21,10.48-.18,26.77c0,0,1.52-20.65,2.65-22.45s4.32-.95,4.32-.95A75.58,75.58,0,0,0,314.61,172.07Z"/><path class="cls-61" d="M283.48,229c-2.8-2.45-6.16-6.54-9.51-13.24-6.7-13.39-8.62-22.33-8.93-23.89l1.59-2.45,2.13-20.6,2-1.19A84.28,84.28,0,0,0,283.26,148a5.61,5.61,0,0,1,.27.86h0c1.09,4.28,3.33,20.31,5.41,26a13.1,13.1,0,0,0,4.86,6.56s-12.31,18.26-12.91,31.29C280.36,224.58,283,228.44,283.48,229Z"/><path class="cls-62" d="M210.39,267.12s-22.19-3.64-31.25-9.48h0a6.76,6.76,0,0,0,.11-1.48c-.19-5-4.51-9.43-5.11-12.27.1.27.75,1.77,3.9,4.47a66.94,66.94,0,0,0,9.52,6.58l.35.2c6.4,3.78,11.91,6.34,15.89,8.22l.07,0c3.58,1.68,5.9,2.79,6.52,3.73Z"/><path class="cls-63" d="M257.86,249.45c-.12.86-2.08,2.75-2.64,4.81,0,0-8.14,8.62-38.27,6,.2-.85,6.53.38,21.21-2.56C252.39,254.82,257.55,249.76,257.86,249.45Z"/><path class="cls-64" d="M262.87,132.82l-19.26,6.24L238,141.68h-8.66l-3.1.25-1.64.12-4.67.37-2.35.19-23.1-8.36-4.13-1.49-19-6.88,1.73-.68c12.75-5,25.26-11.18,25.26-11.18l4.8-5.9h2.14a71.16,71.16,0,0,0,4-11.17l1.27-5.71c.09-.55.13-.85.13-.85l6.8,3.59,22.93,18.34c0,1.25,0,2.37.09,3.32l.33,2.31c.06-.45.08-.71.08-.71l2.21.66,1.51,3.6s2.56,4,12.7,8.44A60.32,60.32,0,0,1,262.87,132.82Z"/><path class="cls-65" d="M248.2,115.25a31.37,31.37,0,0,1-18.89-2.78c-9.91-4.8-18.24-19-18.75-22.48s3.79-12.76,3.79-20-3.53-19.58,2.4-26.28,33.22-7.7,42.07.89c0,0,2.74,6.88,2.74,10.77a28.33,28.33,0,0,1-.42,3.91c-.08.59-.19,1.22-.29,1.87-.79,4.71-1.88,10.46-1.37,13a12.64,12.64,0,0,0,.79,2.46h0c1.09,2.52,2.71,4.53,3,6.71C263.65,86.2,259.83,106.41,248.2,115.25Z"/><path class="cls-66" d="M214.28,68s-2.45-6.15-8.61-6.24c0,0-3.6,1.42-4.17,4.17,0,0,1.33,9.94,2.85,14.59s7.07,4,7.07,4A23.57,23.57,0,0,0,214.28,68Z"/><path class="cls-67" d="M238,88.25a5.54,5.54,0,0,1,2.93.51c.89.66,4.11,3.79,8.18,4.64s6.81-2.62,7.68-2.79,1.82,1,1.82,1a3.45,3.45,0,0,0-2.5-2.06s-.86,3.27-6.76,2.15S240.88,88,240.88,88l-.3-.54A16.22,16.22,0,0,0,238,88.25Z"/><path class="cls-68" d="M229.23,57.66l.08-.63s5.89-10.34,17.55-10.62,14.28,7,14.28,7l2.16-3.28-4.92-10-34.23-.57-8.34,6.73-1.05,16.46,3.7,21.74,9,4.81L230,87.07c-.94-7.28-6.36-13.93-6.36-13.93l4-2.74s10.14,4.9,16,3.44c0,0,4.41-12.86,4.16-22.39C247.77,51.45,232.75,53.67,229.23,57.66Z"/><path class="cls-69" d="M228.71,58.43s.57-3.73,6.86-5.22c7-1.66,12.68-3.06,12.68-3.06s-1.24,4.08-3.57,5.62c0,0-7.41-.27-11.15.58S228.71,58.43,228.71,58.43Z"/><path class="cls-69" d="M261.14,53.43s-3.55,2.74-6,9.27c0,0,2.32-3,4.46-3a1.22,1.22,0,0,1,1.22,1.48A13.69,13.69,0,0,0,261.14,53.43Z"/><path class="cls-70" d="M231.06,69s.38-7.87,8.05-9.86a16.16,16.16,0,0,1,3,7.58S238.07,65.93,231.06,69Z"/><path class="cls-71" d="M253,72.08s.62-6.26,4.22-8.57c0,0,2.45,1.84,2.19,7.08C259.45,70.59,257.3,69.81,253,72.08Z"/><path class="cls-72" d="M231.06,69s2.5,3.06,9.48,3.66a10.89,10.89,0,0,0,1.2-6S235.33,66,231.06,69Z"/><path class="cls-72" d="M253,72.08V73s1.07,2.24,4.93,2.62a10.69,10.69,0,0,0,1.34-5.07S256.86,69.94,253,72.08Z"/><path class="cls-73" d="M238.52,66.47A8.67,8.67,0,0,0,236.91,72a25.57,25.57,0,0,0,3.63.6,9.49,9.49,0,0,0,1.2-6A9.82,9.82,0,0,0,238.52,66.47Z"/><path class="cls-73" d="M256.7,70.66s-1,1.07-1.2,4.36a7.61,7.61,0,0,0,2.47.6,9.13,9.13,0,0,0,1.34-5.07A4.42,4.42,0,0,0,256.7,70.66Z"/><path class="cls-69" d="M238,72.26s-.64-4.25,1.8-5.88l2,.25a8.59,8.59,0,0,1-1.2,6S238.56,72.4,238,72.26Z"/><path class="cls-69" d="M257.58,70.47a18.14,18.14,0,0,0-1.32,4.83,5.55,5.55,0,0,0,1.71.32,8.31,8.31,0,0,0,1.34-5.07A4,4,0,0,0,257.58,70.47Z"/><path class="cls-74" d="M231.06,69s4.64-2.7,12.55-1.16l-1.46-1.12A13.24,13.24,0,0,0,231.06,69Z"/><path class="cls-74" d="M253,72.08a12.57,12.57,0,0,1,8.06-.93l-1.78-1.32S256.4,69.38,253,72.08Z"/><path class="cls-13" d="M236.08,69a2.74,2.74,0,0,1,2.4.87A2.19,2.19,0,0,1,236.08,69Z"/><path class="cls-13" d="M254.75,72.62s2-.38,2.66.52C257.41,73.14,256.35,73.87,254.75,72.62Z"/><path class="cls-75" d="M231.53,69.42a18.27,18.27,0,0,0,9.38,4.42l.15-2.11-.52.89S235,72.29,231.53,69.42Z"/><path class="cls-75" d="M253,73s.64,2.3,5.34,3.35l-.15-1.13-.26.4S254.63,75.19,253,73Z"/><path class="cls-76" d="M243.61,82.22a16.75,16.75,0,0,1,5,0c3.22.38,6.84,1.26,8.82,0,0,0-2.63,2.63-4.91,3s-5.74-1.6-5.74-1.6l-1.52,0A4.19,4.19,0,0,1,243.61,82.22Z"/><path class="cls-77" d="M245.46,83.67a2.46,2.46,0,0,1,1.45-.38c.67.13,1.34,1.1,1.34,1.1A6.55,6.55,0,0,0,245.46,83.67Z"/><path class="cls-78" d="M257.41,82.22c.84-.82-3.52-8.58-5.6-8.87s-4,8.7-4,8.7,2.9.41,5.71.78S257.41,82.22,257.41,82.22Z"/><path class="cls-79" d="M260.52,57.78c-1.18-.15-5.35,4.92-5.35,4.92s-2.65,8.21-2.13,10.64,7,3.73,7,3.73l.27-.43h0a12.64,12.64,0,0,1-.79-2.46c-.51-2.52.58-8.27,1.37-13a9.67,9.67,0,0,0,.29-1.87C261.17,58.56,261.06,57.84,260.52,57.78Z"/><path class="cls-80" d="M260.33,91.12c-1.33-2.78-.51-4.23-12.06-5.74-16.35-2.15-17.75,2.84-20.53,2.08l-.33-.12c-3-1.17-10.1-8.14-10.28-17.53-.19-9.76,6.35-16.68,6.35-16.68-2.37-2-3.32-7.76-.76-10.23s6.92-1.89,17.62-.76,10.71.48,10.71.48c3.4.87,5.35,4.06,5.9,5.08.11.2.16.32.16.32l1.33-1.23a17.42,17.42,0,0,1,2.94,10.89s5.87-11.94,5.2-13.63a45.38,45.38,0,0,0-4.82-8h0S260.8,27,258,27s-15,2.74-15,2.74A17.22,17.22,0,0,0,244.13,23l0,0c-4,3.55-7.83,3.94-13.31,6.48a13.87,13.87,0,0,0-5.13,3.72l-.37.44-.39.47c-.38.48-.77,1-1.24,1.47a.33.33,0,0,1-.06.06l0,0A15.68,15.68,0,0,1,222,37.22c-3.6,2.93-11.52,4.89-12.47,8s1.2,7.32,2.34,11.68a23.73,23.73,0,0,1,.61,8.21,16.13,16.13,0,0,1,2.52,12c-1.11,6.37-3.54,7.41-3.54,7.41a10.91,10.91,0,0,0-.9,6.79c3.5,13.92,18,22.21,18,22.21,12.88,4.8,21.35,2.71,21.35,2.71h0c9.37-6.11,12.58-26.33,12.72-27.27C262.42,89.16,260.68,91.86,260.33,91.12ZM254.55,104c-2.27-.38-2.75-6.13-3.5-6.89s-4.87-.44-4.87-.44-3.79,4.3-5.3,4.42S231.28,97.94,233,93s7.85-5.56,7.85-5.56a14.8,14.8,0,0,0,7.89,3c4.74.31,6.45-.56,7-.81s3.62,1.13,3.54,5.43C259.27,98,256.83,104.39,254.55,104Z"/><path class="cls-81" d="M254,75.08s4.08,5.07,3.69,7c-.43,2.09-5.16,3.2-5.16,3.2s3.8-1.31,4.57-3.2A25.08,25.08,0,0,0,254,75.08Z"/><path class="cls-82" d="M261.38,57.68a17.42,17.42,0,0,0-2.94-10.89,29.09,29.09,0,0,0,3.31-10.71h0a36.71,36.71,0,0,1,1.54,7.1l3.28.86C267.25,45.74,261.38,57.68,261.38,57.68Z"/><path class="cls-83" d="M257,47.7c-.55-1-2.5-4.21-5.9-5.08,0,0,0,.66-10.71-.48s-15.06-1.7-17.62.76-1.61,8.24.76,10.23c0,0-6.54,6.92-6.35,16.68.18,9.39,7.27,16.36,10.28,17.53l-.14,1s.53,21.5,5.76,23.21,16.06.82,17.07,1.83-.14,2.61-.24,2.76h0s-8.47,2.09-21.35-2.71c0,0-14.48-8.29-18-22.21a10.91,10.91,0,0,1,.9-6.79s2.43-1,3.54-7.41a16.13,16.13,0,0,0-2.52-12,23.73,23.73,0,0,0-.61-8.21c-1.14-4.36-3.29-8.59-2.34-11.68a13.64,13.64,0,0,0,10-2.21s1.06-1.47,5.75-2.23,23.54,1.14,23.54,1.14A16.2,16.2,0,0,0,243,39.3c-3.76-1-16.6.16-18,.27,1.47-.26,16-2.76,17.69-2.26s8.06,3.41,8.06,3.41c-.57-2.89-6.21-9.85-6.21-9.85a88.48,88.48,0,0,0-13.17,1.23,17,17,0,0,0-7.7,3.54l1.24-1.47.39-.47.37-.44,1.82-.31,9.14-3.69c3.07-1.64,7-5.7,7.48-6.2l0,0A17.22,17.22,0,0,1,243,29.73c7.72-.95,10.33-.47,10.33-.47C256.83,34.23,257,47.7,257,47.7Z"/><path class="cls-84" d="M228.5,113.48a48.28,48.28,0,0,1,11.88-.83c7.14.29,11.25.31,9.47,3.54C249.85,116.19,240.88,118.22,228.5,113.48Z"/><path class="cls-85" d="M253.32,29.26s4.35-1.69,6.06-1.41a3.36,3.36,0,0,0-1.39-1.1c-.71-.19-15,3-15,3S251.9,28.69,253.32,29.26Z"/><path class="cls-86" d="M244.51,30.87s-.34,4.73-1.85,6.44L225,39.57l-5.19-.91A13.08,13.08,0,0,0,224,35.22C226.21,32.65,237.74,30.11,244.51,30.87Z"/><path class="cls-87" d="M261.75,36.08a39.82,39.82,0,0,1,1.55,7.11l3.28.86A23.45,23.45,0,0,0,261.75,36.08Z"/><path class="cls-88" d="M213.55,76.35s-1.24-6-4.29-8.92a7.15,7.15,0,0,0-6.52-2s.94,11.07,1.94,13.77,2.51,3.41,2.51,3.41a8.55,8.55,0,0,1-2.42-5.53c-.28-3.66-.38-8.82.43-9.44s4.06,1.79,4.06,1.79a10.83,10.83,0,0,0-1.65,4.52c-.61,3.26,1.66,5.63,2.52,5.58s0-3.77.09-4.85S212.26,73.84,213.55,76.35Z"/><path class="cls-89" d="M210.51,68.93a7.45,7.45,0,0,0-3,6.67c.36,4.49,2.92,4.29,2.93,3.35s-.49-3.37-.23-4.74,2.48-.75,2.48-.75A33,33,0,0,0,210.51,68.93Z"/><path class="cls-90" d="M262.58,88.91s-4.13,18.88-12.73,27.28C249.85,116.19,259.65,112.34,262.58,88.91Z"/><path class="cls-90" d="M258,26.75s2.18,1.7,2.6,7.6-2.15,12.44-2.15,12.44A23.58,23.58,0,0,0,262,36.53C262.36,31.16,259.72,27.43,258,26.75Z"/><path class="cls-91" d="M231.56,39.1a51.22,51.22,0,0,0,10.59,2.21l6.67.6s-2.22-2.16-7-2.81A48.05,48.05,0,0,0,231.56,39.1Z"/><path class="cls-92" d="M256,89.33s2.42,0,3.37,3a25.52,25.52,0,0,1,1,4.5l.86-3.33s-1.12-4.2-2.28-5.15c-.83-.68-2.27-1.38-3-1.21Z"/><path class="cls-93" d="M249.45,86.29l.4,3.6a12.92,12.92,0,0,0,4.9-.56l.34-2.18A27.37,27.37,0,0,0,249.45,86.29Z"/><path class="cls-90" d="M262.87,132.82s17.23,12.59,19.47,16.91,3.14,17.91,6.16,23.78c0,0-2.06-9.61-3.51-17.14s-1.11-7.64-1.91-9.49S269.41,136.1,262.87,132.82Z"/><path class="cls-90" d="M259.79,202.87s-8.31,35.54-7.93,37.94,5.75,7.3,6,8.64c0,0-4.1,5.51-3.91,6.72s7.2,8.93,7,11.31c-.06.69-4.61,8.19-4.61,8.19s5.14-7.37,5.4-8.55-6.3-11-6.49-12c-.5-2.6,3.27-4.5,3.39-6.21s-5.09-5.87-5.14-8.65S259.79,202.87,259.79,202.87Z"/><path class="cls-90" d="M261.47,287.59s17.95,40.64,24.08,81.27C285.55,368.86,284.52,329.21,261.47,287.59Z"/><path class="cls-78" d="M147.66,124.66s-4.64-1-6.57-5-.67-9.92-.67-9.92a102.24,102.24,0,0,0,5.45,9.36C147.68,121.44,148.17,124.16,147.66,124.66Z"/><path class="cls-94" d="M291,103.48l3.22,91.79A6.77,6.77,0,0,0,301,201.8H459.08a6.77,6.77,0,0,0,6.77-6.6l2.21-92.87a6.77,6.77,0,0,0-6.81-6.93L297.69,96.48A6.77,6.77,0,0,0,291,103.48Z"/><path class="cls-95" d="M459.08,202.05H301a7,7,0,0,1-7-6.77l-3.22-91.79a7,7,0,0,1,7-7.26l163.56-1.08a7.1,7.1,0,0,1,5.05,2.1,7,7,0,0,1,2,5.08L466.1,195.2A7,7,0,0,1,459.08,202.05Zm2.22-106.4h0L297.69,96.73a6.51,6.51,0,0,0-6.47,6.74l3.22,91.79a6.5,6.5,0,0,0,6.51,6.29H459.08a6.56,6.56,0,0,0,6.52-6.36l2.21-92.87a6.52,6.52,0,0,0-6.51-6.67Z"/><path class="cls-96" d="M291.21,108.15H467.87l.29-4.84a7.4,7.4,0,0,0-7.46-7.84L297.2,96.76a6.13,6.13,0,0,0-6.09,6.25Z"/><polygon class="cls-97" points="300.09 115.56 300.09 168.68 354.17 168.68 354.17 115.28 300.09 115.56"/><rect class="cls-98" x="406.43" y="119.12" width="23.52" height="23.52"/><rect class="cls-99" x="434.18" y="119.12" width="23.52" height="23.52"/><rect class="cls-100" x="378.21" y="119.12" width="23.52" height="23.52"/><rect class="cls-101" x="397.55" y="156.36" width="60.15" height="5.63"/><rect class="cls-101" x="382.5" y="164.94" width="75.2" height="1.74"/><rect class="cls-101" x="383.21" y="145.65" width="14.39" height="1.74"/><rect class="cls-101" x="410.99" y="145.65" width="14.39" height="1.74"/><rect class="cls-101" x="438.75" y="145.65" width="14.39" height="1.74"/><rect class="cls-101" x="378.21" y="167.77" width="24.19" height="1.74"/><rect class="cls-101" x="382.5" y="170.57" width="75.2" height="1.74"/><rect class="cls-101" x="378.21" y="173.37" width="79.49" height="1.74"/><rect class="cls-101" x="378.21" y="176.17" width="79.49" height="1.74"/><rect class="cls-101" x="382.5" y="187.5" width="75.2" height="1.74"/><rect class="cls-101" x="378.21" y="190.3" width="79.49" height="1.74"/><rect class="cls-101" x="378.21" y="193.1" width="79.49" height="1.74"/><rect class="cls-101" x="378.21" y="178.97" width="76.3" height="1.74"/><rect class="cls-101" x="382.5" y="181.77" width="75.2" height="1.74"/><rect class="cls-101" x="378.21" y="184.57" width="64.41" height="1.74"/><g class="cls-102"><path class="cls-103" d="M315.24,158a15.39,15.39,0,1,1,15.38-15.38A15.4,15.4,0,0,1,315.24,158Zm0-29.77a14.39,14.39,0,1,0,14.38,14.39A14.4,14.4,0,0,0,315.24,128.26Z"/></g><circle class="cls-13" cx="315.24" cy="142.65" r="8.36"/><g class="cls-102"><path class="cls-103" d="M354.17,130.66a15.38,15.38,0,1,1,15.38-15.38A15.4,15.4,0,0,1,354.17,130.66Zm0-29.76a14.38,14.38,0,1,0,14.38,14.38A14.4,14.4,0,0,0,354.17,100.9Z"/></g><circle class="cls-13" cx="354.17" cy="115.28" r="7.87" transform="matrix(0.16, -0.99, 0.99, 0.16, 185.24, 447.22)"/><g class="cls-102"><polygon class="cls-13" points="297.4 100.94 298.52 99.24 304.6 104.57 303.67 105.87 297.4 100.94"/><polygon class="cls-13" points="304.76 100.94 303.63 99.24 297.55 104.57 298.49 105.87 304.76 100.94"/></g><rect class="cls-13" x="409.16" y="100.4" width="54.44" height="2.73"/><polygon class="cls-104" points="122.66 60.98 122.66 84.61 150.92 84.85 151.3 60.23 122.66 60.98"/><polygon class="cls-105" points="151.3 60.23 153.15 63.33 152.22 84.83 150.92 84.85 151.3 60.23"/><polygon class="cls-13" points="127.71 68.96 130.32 65.17 144.43 77.01 142.26 79.9 127.71 68.96"/><polygon class="cls-13" points="144.79 68.96 142.18 65.17 128.07 77.01 130.24 79.9 144.79 68.96"/><path class="cls-106" d="M188.58,339H91.9A7.91,7.91,0,0,1,84,331.3L82.17,252a7.93,7.93,0,0,1,7.92-8.1H190.76a7.91,7.91,0,0,1,7.91,8.14l-2.17,79.3A7.92,7.92,0,0,1,188.58,339Z"/><path class="cls-107" d="M188.58,339.29H91.9a8.21,8.21,0,0,1-8.17-8L81.92,252a8.18,8.18,0,0,1,8.17-8.36H190.76a8.18,8.18,0,0,1,8.17,8.39l-2.18,79.31A8.13,8.13,0,0,1,188.58,339.29ZM90.09,244.15A7.68,7.68,0,0,0,82.42,252l1.81,79.31a7.71,7.71,0,0,0,7.67,7.49h96.68a7.63,7.63,0,0,0,7.67-7.45L198.43,252a7.67,7.67,0,0,0-7.67-7.88Z"/><rect class="cls-13" x="108.24" y="260.12" width="50.85" height="2.18"/><rect class="cls-13" x="108.24" y="265.42" width="25.42" height="2.18"/><rect class="cls-13" x="108.24" y="269.84" width="25.42" height="2.18"/><rect class="cls-13" x="136.51" y="269.84" width="20.23" height="2.18"/><rect class="cls-13" x="108.24" y="274.26" width="40.99" height="2.18"/><rect class="cls-13" x="108.24" y="278.68" width="14.59" height="2.18"/><rect class="cls-13" x="125.83" y="291.94" width="25.23" height="2.18"/><rect class="cls-13" x="108.24" y="283.1" width="45.73" height="2.18"/><rect class="cls-13" x="108.24" y="287.52" width="35.18" height="2.18"/><rect class="cls-13" x="108.24" y="291.94" width="16.55" height="2.18"/><rect class="cls-13" x="108.24" y="296.36" width="25.42" height="2.18"/><rect class="cls-13" x="108.24" y="300.79" width="7.29" height="2.18"/><rect class="cls-13" x="118.53" y="300.79" width="26.46" height="2.18"/><rect class="cls-13" x="125.83" y="305.08" width="25.23" height="2.18"/><rect class="cls-13" x="108.24" y="305.08" width="16.55" height="2.18"/><rect class="cls-13" x="108.24" y="309.5" width="25.42" height="2.18"/><rect class="cls-13" x="108.24" y="313.92" width="7.29" height="2.18"/><rect class="cls-13" x="118.53" y="313.92" width="26.46" height="2.18"/><path class="cls-108" d="M448,77.7a4.47,4.47,0,1,1-4.47-4.47A4.47,4.47,0,0,1,448,77.7Z"/><path class="cls-109" d="M29.13,181.34a5.56,5.56,0,1,1-5.56-5.56A5.56,5.56,0,0,1,29.13,181.34Z"/><circle class="cls-110" cx="456.69" cy="77.7" r="4.47"/><circle class="cls-111" cx="168.52" cy="108.43" r="3.16"/><circle class="cls-112" cx="380.17" cy="247.87" r="3.16"/><circle class="cls-113" cx="51.65" cy="279.37" r="2.82"/><path class="cls-114" d="M99.81,251.63H51a7.28,7.28,0,0,1-7.28-7l-1.08-32.1A7.28,7.28,0,0,1,49.93,205h50.86a7.28,7.28,0,0,1,7.28,7.51l-1,32.09A7.28,7.28,0,0,1,99.81,251.63Z"/><path class="cls-115" d="M99.81,251.88H51a7.5,7.5,0,0,1-7.53-7.28L42.4,212.51a7.53,7.53,0,0,1,7.53-7.79h50.86a7.53,7.53,0,0,1,7.53,7.76l-1,32.1A7.49,7.49,0,0,1,99.81,251.88ZM49.93,205.22a7,7,0,0,0-7,7.27L44,244.59a7,7,0,0,0,7,6.79h48.8a7,7,0,0,0,7-6.81l1-32.1a7,7,0,0,0-7-7.25Z"/><polygon class="cls-13" points="64.02 216.5 51.99 230.45 64.24 240.85 64.24 235.48 57.15 229.34 63.73 221.9 64.02 216.5"/><polygon class="cls-13" points="85.17 217.13 97.2 231.07 84.95 241.48 84.95 236.11 92.04 229.97 84.15 221.63 85.17 217.13"/><polygon class="cls-13" points="66.64 240.85 77.13 217.75 82.05 217.75 70.18 240.85 66.64 240.85"/><path class="cls-116" d="M428.14,317.68H367.09a9.12,9.12,0,0,1-9.11-8.8l-1.35-40.15a9.1,9.1,0,0,1,9.1-9.42h63.63a9.11,9.11,0,0,1,9.11,9.39l-1.23,40.15A9.11,9.11,0,0,1,428.14,317.68Z"/><path class="cls-115" d="M428.14,317.93H367.09a9.32,9.32,0,0,1-9.36-9l-1.35-40.15a9.34,9.34,0,0,1,9.35-9.68h63.63a9.36,9.36,0,0,1,9.36,9.65l-1.23,40.15A9.3,9.3,0,0,1,428.14,317.93Zm-62.41-58.37a8.85,8.85,0,0,0-8.85,9.16l1.35,40.15a8.82,8.82,0,0,0,8.86,8.56h61.05a8.81,8.81,0,0,0,8.85-8.59l1.23-40.15a8.86,8.86,0,0,0-8.86-9.13Z"/><rect class="cls-101" x="368.86" y="265.77" width="55.91" height="33.21"/><polygon class="cls-13" points="391.87 274.01 391.87 290.74 406.15 281.61 391.87 274.01"/><rect class="cls-101" x="368.86" y="305.1" width="55.91" height="3.04"/><rect class="cls-13" x="368.86" y="305.1" width="14.47" height="3.04"/><path class="cls-117" d="M327.9,255.28,325,263.63C326.59,259,328.91,256,327.9,255.28ZM325,263.63,322.06,272C322.79,271.75,323.36,268.24,325,263.63Zm2.92-8.35L325,263.63C326.59,259,328.91,256,327.9,255.28ZM325,263.63,322.06,272C322.79,271.75,323.36,268.24,325,263.63Zm8.43,7.23,2.83,1.61,3.06-8.36-3.28-.54c.06-.31.12-.63.16-.93a22.1,22.1,0,0,0,.28-4.16l3.43-2.16L338.32,249,335,252.11a9.66,9.66,0,0,0-1.68-2.45,7.33,7.33,0,0,0-.57-.55l2-4.64-5.35-1.74h0l-1.29,4.67a8.93,8.93,0,0,0-3.62.85l-.59-4.42-5.88,4.45,1.36,3.92a21.88,21.88,0,0,0-2.88,4.18l-2.83-1.6-3.06,8.36,3.28.55a22.53,22.53,0,0,0-.44,5.08l-3.43,2.16,1.56,7.35,3.29-3.14a9.32,9.32,0,0,0,2.25,3l-2,4.64,5.26,2.06.82-3,.55-2a8.94,8.94,0,0,0,3.63-.85l.58,4.42,5.89-4.45-1.36-3.92a21.81,21.81,0,0,0,2.32-3.21C333,271.52,333.22,271.19,333.41,270.86ZM325,263.63c-1.62,4.61,0,9.36-2.92,8.34s-4-5.6-2.39-10.2,5.3-7.51,8.23-6.49S326.59,259,325,263.63Zm2.92-8.35L325,263.63C326.59,259,328.91,256,327.9,255.28ZM325,263.63,322.06,272C322.79,271.75,323.36,268.24,325,263.63Z"/><path class="cls-118" d="M336.24,272.47l3.06-8.36-3.12-1.47-.51-.24.33-4.6,3.47-1.69L338.32,249l-7.54-2.46,1.39,3.32,2.63-5.36-5.35-1.74-2.2-.72L322,240l-1,3.6-4.59-2.18-5.89,4.46,1.79,4.81-5.51,15.27-2.72,9.91,5.23.58-1.7,3.92,5.27,2.06,7.54,2.46-1.21-2.43-.76-1.45,2.79.91,4.76,1.55,5.89-4.45-3.64-4.29,4.6-2.84Zm-16.57-10.7c1.62-4.61,5.3-7.51,8.23-6.49L325,263.63,322.06,272C319.13,270.94,318.06,266.37,319.67,261.77Z"/><path class="cls-119" d="M328.7,270l3.05-8.35-3.28-.55a22.44,22.44,0,0,0,.44-5.08l3.43-2.15-1.56-7.36-3.29,3.14a9.17,9.17,0,0,0-2.25-3l2-4.64L322,240l-1.36,5a8.94,8.94,0,0,0-3.63.85l-.58-4.42-5.89,4.45,1.36,3.92a22.39,22.39,0,0,0-2.87,4.19l-2.84-1.6-3.06,8.35,3.28.55a23,23,0,0,0-.44,5.08l-3.43,2.15,1.57,7.36,3.28-3.14a9.32,9.32,0,0,0,2.25,3l-2,4.64,5.27,2.06,1.37-5a8.92,8.92,0,0,0,3.62-.84l.58,4.41,5.89-4.45L323,272.59a22.88,22.88,0,0,0,2.87-4.19Zm-14.19-.49c-2.93-1-4-5.59-2.38-10.2s5.3-7.52,8.23-6.49,4,5.59,2.38,10.2S317.44,270.54,314.51,269.51Z"/><polygon class="cls-120" points="339.88 256.32 332.34 253.87 328.91 256.02 336.46 258.48 339.88 256.32"/><polygon class="cls-121" points="331.89 278.97 324.34 276.51 322.99 272.59 330.53 275.05 331.89 278.97"/><polygon class="cls-120" points="325.24 246.65 329.38 247.85 330.78 246.51 333.52 247.41 334.8 244.47 327.25 242.01 325.24 246.65"/><path class="cls-120" d="M314.25,277.39,318.2,279l-.33-2.49A7.09,7.09,0,0,1,314.25,277.39Z"/><path class="cls-120" d="M314.86,254.77l6.65,3.51a10.66,10.66,0,0,1,1.71-1.81S321.49,249.14,314.86,254.77Z"/><polygon class="cls-122" points="162.1 5.83 168.52 18.68 164.23 20.63 158.23 8.82 162.1 5.83"/><polygon class="cls-123" points="17.65 305.17 23.59 311.68 25.92 308.99 20.32 302.82 17.65 305.17"/><polygon class="cls-124" points="319.43 84.23 313.45 87.86 311.05 83.31 317.59 79.5 319.43 84.23"/><polygon class="cls-124" points="348.87 313.95 340.3 320.03 337.91 315.49 346.23 310.63 348.87 313.95"/><polygon class="cls-125" points="337.55 53.16 336.1 19.5 380.18 19.5 378.36 53.06 337.55 53.16"/><polygon class="cls-126" points="336.1 19.5 334.79 21.49 336.1 53.16 337.55 53.16 336.1 19.5"/><polygon class="cls-13" points="350.74 26.22 343.82 25.48 344.77 48.55 350.74 47.96 350.74 45.57 347.28 45.65 346.88 27.87 350.74 27.98 350.74 26.22"/><polygon class="cls-13" points="364.9 26.22 371.82 25.48 370.87 48.55 364.9 47.96 364.9 45.57 368.36 45.65 368.75 27.87 364.9 27.98 364.9 26.22"/><polygon class="cls-127" points="33.67 126.84 34.66 103.9 4.61 103.9 5.85 126.78 33.67 126.84"/><polygon class="cls-128" points="34.66 103.9 35.55 105.25 34.66 126.84 33.67 126.84 34.66 103.9"/><path class="cls-13" d="M23.08,108.51a20.1,20.1,0,0,1,3.88.15c.58.26-.15,5.63-.15,5.63l1.31,1.21-1.23,1.19s.07,5.44-.71,5.89-3.42,0-3.42,0v-1.36a7.88,7.88,0,0,0,2.52-.15c.35-.29.32-5,.32-5l.58-.63-.58-.69s.11-3.39,0-4.32c0-.62-2.56-.65-2.56-.65Z"/><path class="cls-13" d="M15.54,108.51a20.1,20.1,0,0,0-3.88.15c-.58.26.15,5.63.15,5.63L10.5,115.5l1.23,1.19s-.07,5.44.71,5.89,3.42,0,3.42,0v-1.36a7.86,7.86,0,0,1-2.52-.15c-.36-.29-.32-5-.32-5l-.58-.63.58-.69s-.11-3.39,0-4.32c0-.62,2.57-.65,2.57-.65Z"/><path class="cls-95" d="M287.17,56.19l-7.36-19.26,19.09,4ZM280.6,37.6l6.72,17.58L298,41.24Z"/><rect class="cls-95" x="337.5" y="324.57" width="10.94" height="0.5" transform="matrix(0.59, -0.81, 0.81, 0.59, -121.77, 409.41)"/><polygon class="cls-95" points="279.23 248.02 272.28 239.38 272.68 239.06 279.62 247.71 279.23 248.02"/><polygon class="cls-95" points="64.9 308.74 51.03 298.68 51.33 298.28 65.19 308.34 64.9 308.74"/><rect class="cls-95" x="49.55" y="303.26" width="17.13" height="0.5" transform="translate(-218.54 165.82) rotate(-52.7)"/><rect class="cls-95" x="37.91" y="153.59" width="0.5" height="10.14" transform="translate(-120.04 118.64) rotate(-62.28)"/><polygon class="cls-95" points="387.37 40.23 386.99 39.9 397.36 28.07 397.74 28.4 387.37 40.23"/><rect class="cls-95" x="187.75" y="68.41" width="0.5" height="10.41" transform="translate(-13.11 91.44) rotate(-26.45)"/><rect class="cls-95" x="110.44" y="230.6" width="15.54" height="0.5" transform="translate(-120.57 129.63) rotate(-39.91)"/></g></g></g></svg>