<svg id="Layer_1" data-name="Layer 1" xmlns="http://www.w3.org/2000/svg" viewBox="0 0 1066 902.99"><defs><style>.cls-1{fill:#7dd3fc;}.cls-2{fill:#f472b6;}</style></defs><path class="cls-1" d="M200.11,207.34C146.26,271.76,180.4,372.6,170,442.3,159.69,512,117.7,540,117.7,540s42,28,52.27,97.7c10.43,69.7-23.71,170.54,30.14,234.95,27.14,32.71,63.85,39.85,89,40.14v78.7C117.69,992.2,67,894.36,74.7,766.1,81.54,654.28,60,604.64,24,593.68a23.6,23.6,0,0,1-17-22.5V508.82a23.6,23.6,0,0,1,17-22.5c36.05-11,57.58-60.6,50.74-172.42C67,185.63,117.69,87.8,289.09,88.51v78.7C264,167.49,227.25,174.63,200.11,207.34Z" transform="translate(-7 -88.51)"/><path class="cls-1" d="M879.89,207.34c53.85,64.42,19.71,165.26,30.14,235S962.3,540,962.3,540s-42,28-52.27,97.7,23.71,170.54-30.14,234.95c-27.14,32.71-63.85,39.85-89,40.14v78.7c171.4.71,222.1-97.13,214.39-225.39C998.46,654.28,1020,604.64,1056,593.68a23.6,23.6,0,0,0,17-22.5V508.82a23.6,23.6,0,0,0-17-22.5c-36-11-57.58-60.6-50.74-172.42,7.71-128.27-43-226.1-214.39-225.39v78.7C816,167.49,852.75,174.63,879.89,207.34Z" transform="translate(-7 -88.51)"/><circle class="cls-2" cx="507.69" cy="743.8" r="54.1"/><path class="cls-2" d="M236.82,700.57a77.63,77.63,0,1,1,77.62,77.63A77.62,77.62,0,0,1,236.82,700.57Z" transform="translate(-7 -88.51)"/><path class="cls-2" d="M337.52,446.48A34.55,34.55,0,1,1,372.06,481,34.55,34.55,0,0,1,337.52,446.48Z" transform="translate(-7 -88.51)"/><path class="cls-2" d="M460.58,588.4a22.26,22.26,0,1,1,22.26,22.26A22.26,22.26,0,0,1,460.58,588.4Z" transform="translate(-7 -88.51)"/><circle class="cls-2" cx="557.99" cy="174.41" r="54.1"/><path class="cls-2" d="M842.87,394.65A77.63,77.63,0,1,1,765.24,317,77.63,77.63,0,0,1,842.87,394.65Z" transform="translate(-7 -88.51)"/><path class="cls-2" d="M742.16,648.74a34.54,34.54,0,1,1-34.54-34.54A34.54,34.54,0,0,1,742.16,648.74Z" transform="translate(-7 -88.51)"/><path class="cls-2" d="M619.1,506.82a22.26,22.26,0,1,1-22.25-22.25A22.25,22.25,0,0,1,619.1,506.82Z" transform="translate(-7 -88.51)"/></svg>