<svg id="Layer_1" data-name="Layer 1" xmlns="http://www.w3.org/2000/svg" viewBox="0 0 1058 720.99"><defs><style>.cls-1{fill:#7dd3fc;}.cls-2{fill:#f472b6;}</style></defs><path class="cls-1" d="M1003,507.87H953.57a66,66,0,0,1-66-66h0a66,66,0,0,1,66-66H1003a66,66,0,0,1,66,66h0A66,66,0,0,1,1003,507.87Z" transform="translate(-11 -179.51)"/><path class="cls-2" d="M298.65,507.87H80.59a66,66,0,0,1-66-66h0a66,66,0,0,1,66-66H298.65a66,66,0,0,1,66,66h0A66,66,0,0,1,298.65,507.87Z" transform="translate(-11 -179.51)"/><path class="cls-1" d="M735.14,507.87H517.08a66,66,0,0,1-66-66h0a66,66,0,0,1,66-66H735.14a66,66,0,0,1,66,66h0A66,66,0,0,1,735.14,507.87Z" transform="translate(-11 -179.51)"/><path class="cls-1" d="M77,572.13h49.41a66,66,0,0,1,66,66h0a66,66,0,0,1-66,66H77a66,66,0,0,1-66-66h0A66,66,0,0,1,77,572.13Z" transform="translate(-11 -179.51)"/><path class="cls-2" d="M781.35,572.13H999.41a66,66,0,0,1,66,66h0a66,66,0,0,1-66,66H781.35a66,66,0,0,1-66-66h0A66,66,0,0,1,781.35,572.13Z" transform="translate(-11 -179.51)"/><path class="cls-2" d="M344.86,572.13H562.92a66,66,0,0,1,66,66h0a66,66,0,0,1-66,66H344.86a66,66,0,0,1-66-66h0A66,66,0,0,1,344.86,572.13Z" transform="translate(-11 -179.51)"/><path class="cls-1" d="M80.59,179.51H130a66,66,0,0,1,66,66h0a66,66,0,0,1-66,66H80.59a66,66,0,0,1-66-66h0A66,66,0,0,1,80.59,179.51Z" transform="translate(-11 -179.51)"/><path class="cls-2" d="M348.42,179.51H1003a66,66,0,0,1,66,66h0a66,66,0,0,1-66,66H348.42a66,66,0,0,1-66-66h0A66,66,0,0,1,348.42,179.51Z" transform="translate(-11 -179.51)"/><path class="cls-2" d="M1003,900.49H953.57a66,66,0,0,1-66-66h0a66,66,0,0,1,66-66H1003a66,66,0,0,1,66,66h0A66,66,0,0,1,1003,900.49Z" transform="translate(-11 -179.51)"/><path class="cls-1" d="M735.14,900.49H80.59a66,66,0,0,1-66-66h0a66,66,0,0,1,66-66H735.14a66,66,0,0,1,66,66h0A66,66,0,0,1,735.14,900.49Z" transform="translate(-11 -179.51)"/></svg>